<svg width="145" height="191" viewBox="0 0 145 191" fill="none" xmlns="http://www.w3.org/2000/svg">
<path d="M39.6663 142.616L6.24809 160.844C4.28703 161.914 2.52461 163.228 0.884766 164.661C20.3685 181.089 45.5199 191 73.0001 191C100.277 191 125.268 181.237 144.697 165.033C142.905 163.52 140.961 162.159 138.805 161.085L103.02 143.195C98.3966 140.883 95.4762 136.158 95.4762 130.989V116.949C96.482 115.804 97.6316 114.333 98.8615 112.596C103.739 105.707 107.428 98.1286 109.985 90.1788C114.575 88.7629 117.956 84.5238 117.956 79.4859V64.4991C117.956 61.2024 116.49 58.2566 114.212 56.1941V34.5295C114.212 34.5295 118.662 0.81543 73.0043 0.81543C27.3463 0.81543 31.7968 34.5295 31.7968 34.5295V56.1941C29.5145 58.2566 28.0522 61.2024 28.0522 64.4991V79.4859C28.0522 83.4334 30.1273 86.9075 33.2337 88.9151C36.9783 105.216 46.7836 116.949 46.7836 116.949V130.642C46.7794 135.63 44.0491 140.224 39.6663 142.616Z" fill="#E7ECED"/>
</svg>
