<svg width="510" height="449" viewBox="0 0 510 449" fill="none" xmlns="http://www.w3.org/2000/svg">
<path d="M154.538 323.675L127.514 319.549L120.5 245.283C118.437 212.276 90.1747 187.108 57.1677 189.171C24.1607 191.234 -1.00715 219.496 1.05579 252.916L8.48237 330.689C9.92642 354.206 24.9859 374.629 46.853 382.881C52.6292 385.769 59.0244 387.007 65.6258 386.801L122.357 389.483C128.133 389.689 132.878 385.357 133.084 379.787C133.29 374.217 128.958 369.266 123.388 369.06L66.0383 366.378C65.6258 366.378 65.4195 366.378 65.0069 366.378C61.7062 366.584 58.6118 365.965 55.7237 364.521C55.3111 364.315 54.8985 364.108 54.4859 364.108C39.839 358.745 29.7306 345.129 28.6992 329.245L21.4789 251.266C20.2411 229.605 36.7446 211.038 58.4055 209.594C80.2726 208.357 98.6328 224.86 100.077 246.727L107.503 324.5C107.503 325.738 107.503 326.769 107.503 328.007C107.297 333.164 111.01 337.497 116.168 338.322L151.444 343.892C155.776 344.511 158.871 348.224 158.871 352.556V438.581C158.871 444.15 163.409 448.895 169.185 448.895C174.755 448.895 179.5 444.357 179.5 438.581V352.556C179.087 338.115 168.773 325.944 154.538 323.675Z" fill="white"/>
<path d="M64.3884 165.654C93.8884 165.654 118.025 141.518 118.025 112.018C118.025 82.5176 93.8884 58.3812 64.3884 58.3812C34.8883 58.3812 10.752 82.5176 10.752 112.018C10.752 141.518 34.8883 165.654 64.3884 165.654ZM64.3884 78.8043C82.7485 78.8043 97.6017 93.6575 97.6017 112.018C97.6017 130.378 82.7485 145.231 64.3884 145.231C46.0282 145.231 31.175 130.378 31.175 112.018C31.175 93.6575 46.2345 78.8043 64.3884 78.8043Z" fill="white"/>
<path d="M453.253 189.171C420.452 187.108 391.984 212.276 389.921 244.871L382.907 319.549L355.882 323.675C341.648 325.944 331.127 338.115 331.127 352.556V438.581C331.127 444.15 335.665 448.895 341.442 448.895C347.218 448.895 351.756 444.357 351.756 438.581V352.556C351.756 348.224 354.851 344.717 359.183 343.892L394.459 338.322C399.617 337.497 403.33 333.164 403.123 328.007C403.123 326.769 403.123 325.738 403.123 324.913L410.55 246.521C411.788 224.86 430.354 208.357 452.221 209.594C473.882 210.832 490.386 229.605 489.148 250.853L481.721 329.245C480.69 344.717 470.788 358.332 456.141 363.696C455.728 363.902 455.316 364.108 454.903 364.108C452.015 365.553 448.921 366.171 445.62 365.965C445.207 365.965 444.795 365.965 444.589 365.965L387.239 368.647C381.669 368.853 377.13 373.804 377.543 379.374C377.749 384.944 382.494 389.483 388.27 389.07L445.001 386.388C451.396 386.594 457.998 385.357 463.774 382.469C485.641 374.011 500.7 353.587 502.145 330.483L509.571 252.091C511.428 219.496 486.26 191.028 453.253 189.171Z" fill="white"/>
<path d="M446.033 165.654C475.533 165.654 499.669 141.518 499.669 112.018C499.669 82.5176 475.533 58.3812 446.033 58.3812C416.533 58.3812 392.396 82.5176 392.396 112.018C392.396 141.518 416.327 165.654 446.033 165.654ZM446.033 78.8043C464.393 78.8043 479.246 93.6575 479.246 112.018C479.246 130.378 464.393 145.231 446.033 145.231C427.673 145.231 412.82 130.378 412.82 112.018C412.82 93.6575 427.673 78.8043 446.033 78.8043Z" fill="white"/>
<path d="M361.038 140.28V10.9336C361.038 4.95105 356.087 0 350.105 0H160.314C154.332 0 149.381 4.95105 149.381 10.9336V140.28C149.381 146.262 154.332 151.213 160.314 151.213H213.332L247.989 185.871C250.052 187.934 252.528 188.965 255.21 188.965C257.891 188.965 260.367 187.934 262.43 185.871L297.087 151.213H350.105C356.294 151.213 361.038 146.262 361.038 140.28ZM340.615 130.79H292.755C290.073 130.79 287.391 131.822 285.535 133.885L255.21 164.21L224.884 133.678C223.028 131.822 220.346 130.584 217.664 130.584H169.804V20.6294H340.615V130.79V130.79Z" fill="white"/>
</svg>
