<svg width="92" height="92" viewBox="0 0 92 92" fill="none" xmlns="http://www.w3.org/2000/svg">
<g clip-path="url(#clip0)">
<path d="M91.9756 77.5734V90.8105C91.9756 91.305 91.5742 91.7064 91.0797 91.7064H60.2754L61.3254 77.5734C61.3254 71.071 66.5968 65.7996 73.0992 65.7996H80.2018C86.7042 65.7996 91.9756 71.071 91.9756 77.5734Z" fill="#FFB655"/>
<path d="M91.9756 77.5734V90.8105C91.9756 91.305 91.5742 91.7064 91.0797 91.7064H76.1255V65.7996H80.2018C86.7042 65.7996 91.9756 71.071 91.9756 77.5734Z" fill="#FF9100"/>
<path d="M25.5883 57.1023C25.5883 62.4508 21.254 66.7851 15.9055 66.7851C10.5571 66.7851 6.22095 62.4508 6.22095 57.1023C6.22095 51.7538 10.5571 47.4177 15.9055 47.4177C21.254 47.4177 25.5883 51.7538 25.5883 57.1023Z" fill="#FFDFCF"/>
<path d="M25.5883 57.1023C25.5883 62.4508 21.254 66.7851 15.9055 66.7851V47.4177C21.254 47.4177 25.5883 51.7538 25.5883 57.1023Z" fill="#FFCEBF"/>
<path d="M31.786 91.7064H0.920793C0.426261 91.7064 0.0249023 91.305 0.0249023 90.8105V77.5734C0.0249023 71.071 5.29632 65.7996 11.7987 65.7996H18.9013C25.4037 65.7996 30.6751 71.071 30.6751 77.5734L31.786 91.7064Z" fill="#00CCB3"/>
<path d="M31.7861 91.7064H15.9055V65.7996H18.9014C25.4037 65.7996 30.6752 71.071 30.6752 77.5734L31.7861 91.7064Z" fill="#00B6BD"/>
<path d="M55.6848 57.1023C55.6848 62.4508 51.3487 66.7851 46.0002 66.7851C40.6518 66.7851 36.3157 62.4508 36.3157 57.1023C36.3157 51.7538 40.6518 47.4177 46.0002 47.4177C51.3487 47.4177 55.6848 51.7538 55.6848 57.1023Z" fill="#FFDFCF"/>
<path d="M55.6848 57.1023C55.6848 62.4508 51.3487 66.7851 46.0002 66.7851V47.4177C51.3487 47.4177 55.6848 51.7538 55.6848 57.1023Z" fill="#FFCEBF"/>
<path d="M61.3252 77.5734V91.7064H30.675V77.5734C30.675 71.071 35.9465 65.7996 42.4488 65.7996H49.5515C56.0538 65.7996 61.3252 71.071 61.3252 77.5734Z" fill="#FF7C48"/>
<path d="M61.3253 77.5734V91.7064H46.0002V65.7996H49.5516C56.0539 65.7996 61.3253 71.071 61.3253 77.5734Z" fill="#FF415B"/>
<path d="M85.8101 57.1023C85.8101 62.4508 81.474 66.7851 76.1255 66.7851C70.777 66.7851 66.4409 62.4508 66.4409 57.1023C66.4409 51.7538 70.777 47.4177 76.1255 47.4177C81.474 47.4177 85.8101 51.7538 85.8101 57.1023Z" fill="#FFDFCF"/>
<path d="M85.8101 57.1023C85.8101 62.4508 81.4739 66.7851 76.1255 66.7851V47.4177C81.4739 47.4177 85.8101 51.7538 85.8101 57.1023Z" fill="#FFCEBF"/>
<path d="M91.6906 1.18935V22.1478C91.6906 22.6423 91.2892 23.0437 90.7947 23.0437H82.4647C82.1924 23.0437 81.9344 23.1673 81.7659 23.3788L76.2222 30.3094C76.043 30.5334 75.7832 30.6462 75.5216 30.6462C75.2618 30.6462 75.002 30.5334 74.8228 30.3094L69.279 23.3788C69.1088 23.1673 68.8508 23.0437 68.5784 23.0437H60.2484C59.7539 23.0437 59.3525 22.6423 59.3525 22.1478V1.18935C59.3525 0.694816 59.7539 0.293457 60.2484 0.293457H90.7947C91.2892 0.293457 91.6906 0.694816 91.6906 1.18935Z" fill="#FFB655"/>
<path d="M75.5217 30.6462V0.293457H90.7949C91.2894 0.293457 91.6908 0.694816 91.6908 1.18935V22.1478C91.6908 22.6423 91.2894 23.0437 90.7949 23.0437H82.4649C82.1925 23.0437 81.9345 23.1673 81.7661 23.3788L76.2223 30.3094C76.0431 30.5334 75.7833 30.6462 75.5217 30.6462Z" fill="#FF9100"/>
<path d="M81.9721 12.0009C81.9721 13.4863 80.7698 14.6886 79.2845 14.6886H71.759C70.2754 14.6886 69.0713 13.4863 69.0713 12.0009C69.0713 10.5173 70.2754 9.31323 71.759 9.31323H79.2845C80.7698 9.31323 81.9721 10.5173 81.9721 12.0009Z" fill="white"/>
<path d="M81.9721 12.0009C81.9721 13.4863 80.7698 14.6886 79.2845 14.6886H75.5217V9.31323H79.2845C80.7698 9.31323 81.9721 10.5173 81.9721 12.0009Z" fill="#EBE1DC"/>
<path d="M32.6479 1.18935V22.1478C32.6479 22.6423 32.2465 23.0437 31.752 23.0437H23.422C23.1497 23.0437 22.8916 23.1673 22.7214 23.3788L17.1776 30.3094C16.9985 30.5334 16.7387 30.6462 16.4788 30.6462C16.2172 30.6462 15.9574 30.5334 15.7783 30.3094L10.2345 23.3788C10.0661 23.1673 9.80805 23.0437 9.5357 23.0437H1.20571C0.711173 23.0437 0.309814 22.6423 0.309814 22.1478V1.18935C0.309814 0.694816 0.711173 0.293457 1.20571 0.293457H31.752C32.2465 0.293457 32.6479 0.694816 32.6479 1.18935Z" fill="#00CCB3"/>
<path d="M32.6478 1.18935V22.1478C32.6478 22.6423 32.2464 23.0437 31.7519 23.0437H23.4219C23.1496 23.0437 22.8915 23.1673 22.7213 23.3788L17.1776 30.3094C16.9984 30.5334 16.7386 30.6462 16.4788 30.6462V0.293457H31.7519C32.2464 0.293457 32.6478 0.694816 32.6478 1.18935Z" fill="#00B6BD"/>
<path d="M22.9291 12.0009C22.9291 13.4863 21.7251 14.6886 20.2415 14.6886H12.716C11.2306 14.6886 10.0283 13.4863 10.0283 12.0009C10.0283 10.5173 11.2306 9.31323 12.716 9.31323H20.2415C21.7251 9.31323 22.9291 10.5173 22.9291 12.0009Z" fill="white"/>
<path d="M22.9292 12.0009C22.9292 13.4863 21.7251 14.6886 20.2415 14.6886H16.4788V9.31323H20.2415C21.7251 9.31323 22.9292 10.5173 22.9292 12.0009Z" fill="#EBE1DC"/>
<path d="M62.1693 11.3414V32.2999C62.1693 32.7944 61.768 33.1958 61.2735 33.1958H52.9381C52.6693 33.1958 52.4131 33.3176 52.2429 33.5255L46.6937 40.3271C46.5146 40.5475 46.2583 40.6568 46.0003 40.6568C45.7423 40.6568 45.4861 40.5475 45.3069 40.3271L39.7578 33.5255C39.5875 33.3176 39.3313 33.1958 39.0625 33.1958H30.7272C30.2327 33.1958 29.8313 32.7944 29.8313 32.2999V11.3414C29.8313 10.8469 30.2327 10.4456 30.7272 10.4456H61.2735C61.768 10.4456 62.1693 10.8469 62.1693 11.3414Z" fill="#FF7C48"/>
<path d="M62.1693 11.3414V32.2999C62.1693 32.7944 61.7679 33.1958 61.2734 33.1958H52.938C52.6693 33.1958 52.413 33.3176 52.2428 33.5255L46.6937 40.3271C46.5145 40.5475 46.2583 40.6568 46.0002 40.6568V10.4456H61.2734C61.7679 10.4456 62.1693 10.8469 62.1693 11.3414Z" fill="#FF415B"/>
<path d="M54.1456 21.9006C54.1456 23.3859 52.9415 24.5882 51.4579 24.5882H40.5424C39.0588 24.5882 37.8547 23.3859 37.8547 21.9006C37.8547 20.417 39.0588 19.2129 40.5424 19.2129H51.4579C52.9415 19.2129 54.1456 20.417 54.1456 21.9006Z" fill="white"/>
<path d="M54.1457 21.9006C54.1457 23.3859 52.9416 24.5882 51.458 24.5882H46.0002V19.2129H51.458C52.9416 19.2129 54.1457 20.417 54.1457 21.9006Z" fill="#EBE1DC"/>
</g>
<defs>
<clipPath id="clip0">
<rect width="91.9506" height="91.9506" fill="white" transform="translate(0.0249023 0.0246582)"/>
</clipPath>
</defs>
</svg>
