<svg width="56" height="49" viewBox="0 0 56 49" fill="none" xmlns="http://www.w3.org/2000/svg">
<g id="debate 2">
<path id="Vector" d="M16.9685 35.3231L14.0011 34.8728L13.231 26.7681C13.0044 23.166 9.90113 20.4194 6.27684 20.6445C2.65254 20.8696 -0.110991 23.9539 0.115528 27.6011L0.930995 36.0886C1.08956 38.655 2.74315 40.8838 5.14424 41.7843C5.77849 42.0995 6.48071 42.2346 7.20557 42.2121L13.4349 42.5048C14.0691 42.5273 14.5901 42.0546 14.6127 41.4467C14.6354 40.8388 14.1597 40.2985 13.5481 40.276L7.25086 39.9833C7.20557 39.9833 7.18292 39.9833 7.13761 39.9833C6.77518 40.0058 6.4354 39.9383 6.11828 39.7807C6.07297 39.7582 6.02767 39.7356 5.98236 39.7356C4.37408 39.1503 3.26413 37.6644 3.15088 35.931L2.35807 27.421C2.22215 25.0571 4.0343 23.0309 6.41275 22.8733C8.81384 22.7383 10.8299 24.5393 10.9884 26.9257L11.8038 35.4131C11.8038 35.5482 11.8038 35.6608 11.8038 35.7959C11.7812 36.3587 12.1889 36.8315 12.7553 36.9216L16.6287 37.5294C17.1044 37.597 17.4443 38.0022 17.4443 38.4749V47.863C17.4443 48.4707 17.9425 48.9885 18.5768 48.9885C19.1884 48.9885 19.7094 48.4933 19.7094 47.863V38.4749C19.6641 36.899 18.5315 35.5707 16.9685 35.3231Z" fill="white"/>
<path id="Vector_2" d="M7.07015 18.0782C10.3094 18.0782 12.9597 15.4442 12.9597 12.2248C12.9597 9.00538 10.3094 6.37134 7.07015 6.37134C3.83092 6.37134 1.18066 9.00538 1.18066 12.2248C1.18066 15.4442 3.83092 18.0782 7.07015 18.0782ZM7.07015 8.60014C9.08616 8.60014 10.7171 10.2211 10.7171 12.2248C10.7171 14.2285 9.08616 15.8494 7.07015 15.8494C5.05413 15.8494 3.42319 14.2285 3.42319 12.2248C3.42319 10.2211 5.07678 8.60014 7.07015 8.60014Z" fill="white"/>
<path id="Vector_3" d="M49.7693 20.6445C46.1676 20.4194 43.0417 23.166 42.8152 26.7231L42.045 34.8728L39.0776 35.3231C37.5146 35.5707 36.3594 36.899 36.3594 38.4749V47.863C36.3594 48.4707 36.8577 48.9886 37.492 48.9886C38.1262 48.9886 38.6245 48.4933 38.6245 47.863V38.4749C38.6245 38.0022 38.9644 37.6195 39.44 37.5294L43.3135 36.9216C43.8798 36.8315 44.2875 36.3587 44.2648 35.7959C44.2648 35.6608 44.2648 35.5483 44.2648 35.4582L45.0803 26.9032C45.2163 24.5393 47.2549 22.7383 49.656 22.8733C52.0344 23.0084 53.8466 25.0571 53.7107 27.3759L52.8952 35.931C52.782 37.6195 51.6947 39.1053 50.0864 39.6907C50.0411 39.7131 49.9958 39.7356 49.9505 39.7356C49.6334 39.8933 49.2936 39.9608 48.9312 39.9383C48.8858 39.9383 48.8406 39.9383 48.8179 39.9383L42.5207 40.231C41.9091 40.2535 41.4107 40.7938 41.456 41.4016C41.4787 42.0095 41.9997 42.5048 42.6339 42.4598L48.8632 42.1671C49.5654 42.1896 50.2903 42.0546 50.9245 41.7394C53.3256 40.8164 54.9792 38.5875 55.1378 36.0661L55.9532 27.5111C56.1571 23.9539 53.3936 20.8472 49.7693 20.6445Z" fill="white"/>
<path id="Vector_4" d="M48.9755 18.0782C52.2147 18.0782 54.8649 15.4442 54.8649 12.2248C54.8649 9.00538 52.2147 6.37134 48.9755 6.37134C45.7363 6.37134 43.0859 9.00538 43.0859 12.2248C43.0859 15.4442 45.7137 18.0782 48.9755 18.0782ZM48.9755 8.60014C50.9915 8.60014 52.6224 10.2211 52.6224 12.2248C52.6224 14.2285 50.9915 15.8494 48.9755 15.8494C46.9595 15.8494 45.3286 14.2285 45.3286 12.2248C45.3286 10.2211 46.9595 8.60014 48.9755 8.60014Z" fill="white"/>
<path id="Vector_5" d="M39.6431 15.309V1.1932C39.6431 0.540315 39.0995 0 38.4426 0H17.6028C16.946 0 16.4023 0.540315 16.4023 1.1932V15.309C16.4023 15.9618 16.946 16.5021 17.6028 16.5021H23.4244L27.2299 20.2844C27.4564 20.5095 27.7283 20.622 28.0228 20.622C28.3172 20.622 28.589 20.5095 28.8156 20.2844L32.621 16.5021H38.4426C39.1222 16.5021 39.6431 15.9618 39.6431 15.309ZM37.4006 14.2733H32.1454C31.8509 14.2733 31.5564 14.3859 31.3526 14.6111L28.0228 17.9205L24.6929 14.5885C24.4891 14.3859 24.1946 14.2508 23.9001 14.2508H18.6449V2.25132H37.4006V14.2733Z" fill="white"/>
</g>
</svg>
