<svg width="435" height="434" viewBox="0 0 435 434" fill="none" xmlns="http://www.w3.org/2000/svg">
<path d="M65.1011 0C41.1735 0 21.7012 19.4647 21.7012 43.4C21.7012 67.3352 41.1735 86.7999 65.1011 86.7999C89.0287 86.7999 108.501 67.3352 108.501 43.4C108.501 19.4647 89.0287 0 65.1011 0ZM65.1011 72.333C49.144 72.333 36.1681 59.3562 36.1681 43.4C36.1681 27.4437 49.144 14.4669 65.1011 14.4669C81.0582 14.4669 94.0341 27.4437 94.0341 43.4C94.0341 59.3562 81.0582 72.333 65.1011 72.333Z" fill="white"/>
<path d="M94.0483 57.8667H93.8678C91.6037 57.8667 89.4625 58.9297 88.0953 60.7385C82.5329 68.1089 74.1496 72.3328 65.1009 72.3328C56.0522 72.3328 47.6689 68.1089 42.1066 60.7377C40.7393 58.9297 38.4176 57.8658 36.1535 57.8658C16.2183 57.8667 0.000976562 74.0832 0.000976562 94.0183V122.966C0.000976562 126.958 3.24156 130.199 7.23402 130.199H122.967C126.959 130.199 130.2 126.958 130.2 122.966V94.0183C130.201 74.0832 113.983 57.8667 94.0483 57.8667ZM115.734 115.733H14.4679V94.0183C14.4679 83.1319 22.5257 74.0976 33.1299 72.5642C41.3615 81.657 52.8116 86.7997 65.1009 86.7997C77.3978 86.7997 88.8547 81.6494 97.0863 72.543C107.611 74.0255 115.734 83.0963 115.734 94.0183V115.733Z" fill="white"/>
<path d="M368.901 0C344.973 0 325.501 19.4647 325.501 43.4C325.501 67.3352 344.973 86.7999 368.901 86.7999C392.829 86.7999 412.301 67.3352 412.301 43.4C412.301 19.4647 392.829 0 368.901 0ZM368.901 72.333C352.944 72.333 339.968 59.3562 339.968 43.4C339.968 27.4437 352.945 14.4669 368.901 14.4669C384.858 14.4669 397.834 27.4437 397.834 43.4C397.834 59.3562 384.858 72.333 368.901 72.333Z" fill="white"/>
<path d="M397.848 57.8666H397.667C395.403 57.8666 393.262 58.9295 391.895 60.7384C386.333 68.1088 377.949 72.3335 368.9 72.3335C359.851 72.3335 351.468 68.1096 345.905 60.7384C344.538 58.9304 342.216 57.8666 339.952 57.8666C320.017 57.8666 303.8 74.0839 303.8 94.0191V122.967C303.8 126.959 307.04 130.2 311.033 130.2H426.766C430.758 130.2 433.999 126.959 433.999 122.967V94.0191C434.001 74.0831 417.783 57.8666 397.848 57.8666ZM419.534 115.733H318.268V94.0182C318.268 83.1318 326.325 74.0975 336.93 72.5641C345.161 81.656 356.611 86.7996 368.901 86.7996C381.198 86.7996 392.654 81.6492 400.886 72.5429C411.411 74.0254 419.534 83.0962 419.534 94.0182V115.733Z" fill="white"/>
<path d="M65.1011 303.8C41.1735 303.8 21.7012 323.264 21.7012 347.2C21.7012 371.135 41.1735 390.599 65.1011 390.599C89.0287 390.599 108.501 371.135 108.501 347.2C108.501 323.264 89.0287 303.8 65.1011 303.8ZM65.1011 376.133C49.144 376.133 36.1681 363.156 36.1681 347.2C36.1681 331.242 49.1449 318.267 65.1011 318.267C81.0574 318.267 94.0341 331.243 94.0341 347.2C94.0341 363.157 81.0582 376.133 65.1011 376.133Z" fill="white"/>
<path d="M94.0482 361.667H93.8677C91.6036 361.667 89.4624 362.729 88.0951 364.538C82.5328 371.909 74.1495 376.133 65.0999 376.133C56.0512 376.133 47.6679 371.91 42.1056 364.538C40.7383 362.73 38.4166 361.667 36.1525 361.667C16.2173 361.667 0 377.884 0 397.819V426.766C0.000847655 430.759 3.24143 433.999 7.23389 433.999H122.967C126.959 433.999 130.2 430.759 130.2 426.766V397.819C130.201 377.883 113.983 361.667 94.0482 361.667ZM115.734 419.533H14.4678V397.818C14.4678 386.932 22.5256 377.897 33.1298 376.364C41.3613 385.457 52.8115 390.6 65.1008 390.6C77.3977 390.6 88.8546 385.449 97.0862 376.343C107.611 377.825 115.734 386.896 115.734 397.818V419.533Z" fill="white"/>
<path d="M368.901 303.8C344.973 303.8 325.501 323.264 325.501 347.2C325.501 371.135 344.973 390.599 368.901 390.599C392.829 390.599 412.301 371.135 412.301 347.2C412.301 323.264 392.829 303.8 368.901 303.8ZM368.901 376.133C352.944 376.133 339.968 363.156 339.968 347.2C339.968 331.242 352.945 318.267 368.901 318.267C384.858 318.267 397.834 331.243 397.834 347.2C397.834 363.157 384.858 376.133 368.901 376.133Z" fill="white"/>
<path d="M397.848 361.667H397.667C395.403 361.667 393.262 362.729 391.895 364.538C386.333 371.909 377.949 376.133 368.9 376.133C359.851 376.133 351.468 371.91 345.905 364.538C344.538 362.73 342.216 361.667 339.952 361.667C320.017 361.667 303.8 377.884 303.8 397.819V426.766C303.8 430.759 307.04 433.999 311.033 433.999H426.766C430.758 433.999 433.999 430.759 433.999 426.766V397.819C434.001 377.883 417.783 361.667 397.848 361.667ZM419.534 419.533H318.268V397.818C318.268 386.932 326.325 377.897 336.93 376.364C345.161 385.456 356.611 390.6 368.901 390.6C381.198 390.6 392.654 385.449 400.886 376.343C411.411 377.825 419.534 386.896 419.534 397.818V419.533Z" fill="white"/>
<path d="M336.865 36.123C330.637 31.9923 324.142 28.1448 317.56 24.694C314.023 22.8419 309.654 24.2024 307.795 27.7396C305.943 31.2769 307.31 35.6525 310.847 37.5046C316.995 40.7308 323.057 44.3181 328.866 48.1741C330.096 48.9912 331.484 49.382 332.858 49.382C335.194 49.382 337.495 48.2461 338.891 46.149C341.097 42.8211 340.192 38.3294 336.865 36.123Z" fill="white"/>
<path d="M278.889 8.96909C265.573 5.01224 251.786 2.32856 237.913 0.997741C233.949 0.643421 230.397 3.53647 230.021 7.50773C229.638 11.479 232.553 15.0163 236.531 15.3994C249.479 16.6438 262.347 19.146 274.766 22.835C275.454 23.0376 276.148 23.1385 276.828 23.1385C279.938 23.1385 282.817 21.099 283.764 17.967C284.9 14.1339 282.716 10.105 278.889 8.96909Z" fill="white"/>
<path d="M196.177 0.990742C182.303 2.31478 168.517 4.99083 155.193 8.94768C151.367 10.0835 149.182 14.1124 150.318 17.9388C151.251 21.0853 154.13 23.1179 157.248 23.1179C157.927 23.1179 158.622 23.0171 159.317 22.8145C171.743 19.1255 184.605 16.6224 197.552 15.3933C201.523 15.0169 204.438 11.4873 204.062 7.50921C203.686 3.53117 200.155 0.622012 196.177 0.990742Z" fill="white"/>
<path d="M126.21 27.7393C124.358 24.202 119.982 22.8424 116.445 24.6936C109.863 28.1436 103.367 31.992 97.1387 36.1226C93.8117 38.329 92.9004 42.8207 95.1137 46.1478C96.5021 48.2457 98.8027 49.3808 101.146 49.3808C102.52 49.3808 103.91 48.99 105.139 48.1728C110.947 44.3101 117.016 40.7228 123.157 37.5034C126.702 35.653 128.061 31.2765 126.21 27.7393Z" fill="white"/>
<path d="M410.239 298.997C406.622 297.297 402.319 298.874 400.626 302.491C397.689 308.784 394.384 315.005 390.803 320.979C388.756 324.408 389.863 328.849 393.291 330.903C394.456 331.605 395.736 331.938 397.002 331.938C399.461 331.938 401.863 330.679 403.201 328.422C407.042 322.021 410.587 315.359 413.733 308.61C415.425 304.993 413.856 300.69 410.239 298.997Z" fill="white"/>
<path d="M433.018 196.305C432.642 192.327 429.127 189.447 425.134 189.787C421.156 190.164 418.241 193.693 418.617 197.671C419.231 204.058 419.535 210.561 419.535 216.999C419.535 228.5 418.559 240.037 416.642 251.292C415.977 255.227 418.624 258.967 422.559 259.639C422.964 259.711 423.376 259.74 423.781 259.74C427.239 259.74 430.299 257.252 430.899 253.729C432.96 241.672 434.002 229.318 434.002 217C434.002 210.106 433.668 203.14 433.018 196.305Z" fill="white"/>
<path d="M419.997 140.262C417.364 133.31 414.326 126.396 410.969 119.719C409.168 116.153 404.821 114.706 401.255 116.507C397.682 118.3 396.242 122.648 398.037 126.221C401.169 132.449 404.004 138.901 406.463 145.389C407.556 148.275 410.304 150.062 413.227 150.062C414.08 150.062 414.941 149.91 415.794 149.592C419.534 148.174 421.415 144.001 419.997 140.262Z" fill="white"/>
<path d="M32.7533 116.507C29.1805 114.706 24.8328 116.153 23.0392 119.719C19.6833 126.395 16.6453 133.31 14.0117 140.262C12.5935 144.001 14.4745 148.175 18.2143 149.593C19.0603 149.91 19.9215 150.063 20.7751 150.063C23.697 150.063 26.4459 148.276 27.5453 145.39C30.0044 138.902 32.8398 132.45 35.9719 126.222C37.7664 122.648 36.3194 118.301 32.7533 116.507Z" fill="white"/>
<path d="M17.3533 251.243C15.4368 240.009 14.4671 228.486 14.4671 217C14.4671 210.533 14.7782 204.016 15.3783 197.636C15.7614 193.658 12.8463 190.127 8.8683 189.744C4.92585 189.404 1.35977 192.276 0.984257 196.254C0.334105 203.097 0.000976562 210.07 0.000976562 217C0.000976562 229.304 1.04275 241.637 3.08983 253.673C3.6976 257.202 6.75001 259.691 10.2144 259.691C10.6196 259.691 11.0315 259.662 11.4367 259.589C15.3791 258.917 18.0264 255.177 17.3533 251.243Z" fill="white"/>
<path d="M43.1844 320.979C39.6039 315.004 36.2981 308.784 33.3618 302.491C31.669 298.874 27.3655 297.297 23.7485 298.997C20.1316 300.69 18.5694 304.993 20.2545 308.61C23.4086 315.359 26.945 322.021 30.7866 328.422C32.1463 330.686 34.5409 331.938 36.9999 331.938C38.2655 331.938 39.5463 331.604 40.6966 330.903C44.1245 328.849 45.2383 324.407 43.1844 320.979Z" fill="white"/>
<path d="M318.245 188.067H188.082C180.096 188.067 173.601 194.562 173.601 202.548V289.319C173.601 297.305 180.096 303.801 188.089 303.801H257.406L298.687 345.081C300.068 346.463 301.919 347.201 303.8 347.201C304.734 347.201 305.674 347.02 306.571 346.65C309.269 345.529 311.034 342.889 311.034 339.967V303.8H318.252C326.238 303.8 332.733 297.304 332.733 289.312V202.547C332.733 194.562 326.238 188.067 318.245 188.067ZM318.253 289.333H303.8C299.808 289.333 296.567 292.573 296.567 296.566V322.505L265.514 291.452C264.162 290.092 262.317 289.333 260.401 289.333L188.068 289.311V202.547L188.082 202.533L318.267 202.547L318.253 289.333Z" fill="white"/>
<path d="M238.679 144.667H108.516C100.53 144.667 94.0342 151.162 94.0342 159.148V245.919C94.0342 253.905 100.53 260.401 108.516 260.401H115.734V296.567C115.734 299.489 117.499 302.13 120.205 303.251C121.095 303.62 122.035 303.801 122.968 303.801C124.849 303.801 126.7 303.064 128.082 301.682L169.363 260.401H180.835C184.827 260.401 188.068 257.161 188.068 253.168V202.547L245.935 202.533C249.927 202.533 253.168 199.292 253.168 195.3V159.147C253.168 151.162 246.672 144.667 238.679 144.667ZM238.701 188.067H188.082C180.097 188.067 173.601 194.562 173.601 202.548V245.934H166.368C164.451 245.934 162.607 246.693 161.254 248.053L130.201 279.105V253.166C130.201 249.173 126.961 245.933 122.968 245.933L108.501 245.918L108.516 159.133L238.701 159.147V188.067Z" fill="white"/>
<path d="M253.169 224.233H209.769C205.777 224.233 202.536 227.474 202.536 231.466C202.536 235.459 205.777 238.699 209.769 238.699H253.169C257.162 238.699 260.402 235.459 260.402 231.466C260.402 227.474 257.162 224.233 253.169 224.233Z" fill="white"/>
<path d="M296.568 224.233H282.101C278.109 224.233 274.868 227.474 274.868 231.466C274.868 235.459 278.109 238.699 282.101 238.699H296.568C300.561 238.699 303.801 235.459 303.801 231.466C303.801 227.474 300.561 224.233 296.568 224.233Z" fill="white"/>
<path d="M296.57 253.167H253.17C249.177 253.167 245.937 256.407 245.937 260.4C245.937 264.392 249.177 267.633 253.17 267.633H296.57C300.562 267.633 303.803 264.392 303.803 260.4C303.803 256.407 300.562 253.167 296.57 253.167Z" fill="white"/>
<path d="M224.234 253.167H209.767C205.775 253.167 202.534 256.407 202.534 260.4C202.534 264.392 205.775 267.633 209.767 267.633H224.234C228.227 267.633 231.467 264.392 231.467 260.4C231.467 256.407 228.227 253.167 224.234 253.167Z" fill="white"/>
<path d="M145.385 406.463C138.904 404.004 132.459 401.175 126.217 398.036C122.651 396.249 118.297 397.682 116.503 401.248C114.709 404.821 116.149 409.168 119.722 410.962C126.405 414.326 133.321 417.364 140.265 419.99C141.111 420.307 141.972 420.46 142.825 420.46C145.748 420.46 148.496 418.673 149.589 415.787C151.006 412.046 149.125 407.873 145.385 406.463Z" fill="white"/>
<path d="M249.319 424.415C248.842 420.451 245.261 417.616 241.276 418.093C225.261 420.01 208.689 420.01 192.61 418.079C188.632 417.601 185.044 420.429 184.567 424.394C184.096 428.357 186.925 431.96 190.889 432.437C199.51 433.471 208.292 433.999 217.001 433.999C225.688 433.999 234.44 433.479 242.997 432.458C246.969 431.981 249.796 428.379 249.319 424.415Z" fill="white"/>
<path d="M317.495 401.247C315.693 397.681 311.347 396.234 307.781 398.035C301.545 401.174 295.094 404.01 288.612 406.462C284.88 407.872 282.993 412.046 284.41 415.785C285.509 418.671 288.258 420.458 291.18 420.458C292.034 420.458 292.894 420.306 293.733 419.988C300.677 417.355 307.592 414.317 314.276 410.96C317.849 409.167 319.288 404.821 317.495 401.247Z" fill="white"/>
</svg>
