<svg width="53" height="52" viewBox="0 0 53 52" fill="none" xmlns="http://www.w3.org/2000/svg">
<g id="discuss 2">
<path id="Vector" d="M7.93233 0C5.01702 0 2.64453 2.33218 2.64453 5.2C2.64453 8.06781 5.01702 10.4 7.93233 10.4C10.8477 10.4 13.2201 8.06781 13.2201 5.2C13.2201 2.33218 10.8477 0 7.93233 0ZM7.93233 8.66663C5.98814 8.66663 4.40716 7.1118 4.40716 5.2C4.40716 3.28819 5.98814 1.73336 7.93233 1.73336C9.87653 1.73336 11.4575 3.28819 11.4575 5.2C11.4575 7.1118 9.87653 8.66663 7.93233 8.66663Z" fill="white"/>
<path id="Vector_2" d="M11.4586 6.93346H11.4366C11.1608 6.93346 10.8999 7.06082 10.7333 7.27754C10.0556 8.16063 9.0342 8.66672 7.93171 8.66672C6.82923 8.66672 5.80782 8.16063 5.13011 7.27745C4.96352 7.06082 4.68065 6.93335 4.40479 6.93335C1.9759 6.93346 0 8.87645 0 11.265V14.7334C0 15.2117 0.39483 15.6 0.881267 15.6H14.9821C15.4684 15.6 15.8633 15.2117 15.8633 14.7334V11.265C15.8634 8.87645 13.8875 6.93346 11.4586 6.93346ZM14.1008 13.8667H1.76264V11.265C1.76264 9.96063 2.74439 8.87817 4.0364 8.69445C5.03933 9.78391 6.4344 10.4001 7.93171 10.4001C9.42996 10.4001 10.8259 9.783 11.8288 8.69191C13.1111 8.86954 14.1008 9.95636 14.1008 11.265V13.8667Z" fill="white"/>
<path id="Vector_3" d="M44.947 0C42.0316 0 39.6592 2.33218 39.6592 5.2C39.6592 8.06781 42.0316 10.4 44.947 10.4C47.8624 10.4 50.2348 8.06781 50.2348 5.2C50.2348 2.33218 47.8624 0 44.947 0ZM44.947 8.66663C43.0028 8.66663 41.4218 7.1118 41.4218 5.2C41.4218 3.28819 43.0029 1.73336 44.947 1.73336C46.8912 1.73336 48.4722 3.28819 48.4722 5.2C48.4722 7.1118 46.8912 8.66663 44.947 8.66663Z" fill="white"/>
<path id="Vector_4" d="M48.4734 6.93335H48.4513C48.1755 6.93335 47.9146 7.0607 47.7481 7.27744C47.0704 8.16053 46.0489 8.66671 44.9464 8.66671C43.8439 8.66671 42.8225 8.16062 42.1447 7.27744C41.9781 7.06081 41.6952 6.93335 41.4194 6.93335C38.9905 6.93335 37.0146 8.87644 37.0146 11.265V14.7334C37.0146 15.2117 37.4094 15.6 37.8959 15.6H51.9967C52.4831 15.6 52.878 15.2117 52.878 14.7334V11.265C52.8782 8.87634 50.9022 6.93335 48.4734 6.93335ZM51.1156 13.8667H38.7774V11.2649C38.7774 9.96052 39.7591 8.87807 41.0512 8.69434C42.054 9.78369 43.4491 10.4 44.9465 10.4C46.4448 10.4 47.8405 9.78288 48.8435 8.6918C50.1259 8.86943 51.1156 9.95625 51.1156 11.2649V13.8667Z" fill="white"/>
<path id="Vector_5" d="M7.93233 36.3999C5.01702 36.3999 2.64453 38.732 2.64453 41.5999C2.64453 44.4677 5.01702 46.7998 7.93233 46.7998C10.8477 46.7998 13.2201 44.4677 13.2201 41.5999C13.2201 38.732 10.8477 36.3999 7.93233 36.3999ZM7.93233 45.0665C5.98814 45.0665 4.40716 43.5117 4.40716 41.5999C4.40716 39.6879 5.98825 38.1333 7.93233 38.1333C9.87644 38.1333 11.4575 39.688 11.4575 41.5999C11.4575 43.5118 9.87653 45.0665 7.93233 45.0665Z" fill="white"/>
<path id="Vector_6" d="M11.4587 43.3333H11.4368C11.1609 43.3333 10.9 43.4605 10.7334 43.6772C10.0557 44.5604 9.03431 45.0665 7.93171 45.0665C6.82923 45.0665 5.80781 44.5605 5.13011 43.6772C4.96352 43.4606 4.68064 43.3333 4.40479 43.3333C1.9759 43.3333 0 45.2763 0 47.6648V51.1331C0.000103277 51.6116 0.394933 51.9998 0.88137 51.9998H14.9822C15.4686 51.9998 15.8634 51.6116 15.8634 51.1331V47.6648C15.8636 45.2762 13.8876 43.3333 11.4587 43.3333ZM14.1009 50.2665H1.76274V47.6647C1.76274 46.3604 2.7445 45.2779 4.0365 45.0942C5.03942 46.1837 6.4345 46.7999 7.93182 46.7999C9.43006 46.7999 10.826 46.1827 11.8289 45.0917C13.1112 45.2692 14.1009 46.3561 14.1009 47.6647V50.2665Z" fill="white"/>
<path id="Vector_7" d="M44.947 36.3999C42.0316 36.3999 39.6592 38.732 39.6592 41.5999C39.6592 44.4677 42.0316 46.7998 44.947 46.7998C47.8624 46.7998 50.2348 44.4677 50.2348 41.5999C50.2348 38.732 47.8624 36.3999 44.947 36.3999ZM44.947 45.0665C43.0028 45.0665 41.4218 43.5117 41.4218 41.5999C41.4218 39.6879 43.0029 38.1333 44.947 38.1333C46.8912 38.1333 48.4722 39.688 48.4722 41.5999C48.4722 43.5118 46.8912 45.0665 44.947 45.0665Z" fill="white"/>
<path id="Vector_8" d="M48.4734 43.3333H48.4513C48.1755 43.3333 47.9146 43.4605 47.7481 43.6772C47.0704 44.5604 46.0489 45.0665 44.9464 45.0665C43.8439 45.0665 42.8225 44.5605 42.1447 43.6772C41.9781 43.4606 41.6952 43.3333 41.4194 43.3333C38.9905 43.3333 37.0146 45.2763 37.0146 47.6648V51.1331C37.0146 51.6116 37.4094 51.9998 37.8959 51.9998H51.9967C52.4831 51.9998 52.878 51.6116 52.878 51.1331V47.6648C52.8782 45.2762 50.9022 43.3333 48.4734 43.3333ZM51.1156 50.2665H38.7774V47.6647C38.7774 46.3604 39.7591 45.2779 41.0512 45.0942C42.054 46.1836 43.4491 46.7999 44.9465 46.7999C46.4448 46.7999 47.8405 46.1827 48.8435 45.0917C50.1259 45.2692 51.1156 46.3561 51.1156 47.6647V50.2665Z" fill="white"/>
<path id="Vector_9" d="M41.0429 4.32815C40.2841 3.83322 39.4927 3.37223 38.6908 2.95877C38.2598 2.73686 37.7275 2.89987 37.501 3.32368C37.2754 3.74751 37.4419 4.27177 37.8729 4.49368C38.622 4.88023 39.3605 5.31005 40.0683 5.77206C40.2182 5.86996 40.3873 5.91678 40.5547 5.91678C40.8393 5.91678 41.1197 5.78068 41.2897 5.52942C41.5585 5.13068 41.4483 4.59251 41.0429 4.32815Z" fill="white"/>
<path id="Vector_10" d="M33.9796 1.07458C32.3572 0.600484 30.6774 0.278937 28.9872 0.119484C28.5042 0.0770311 28.0714 0.423664 28.0256 0.899483C27.9789 1.3753 28.3341 1.79913 28.8188 1.84503C30.3964 1.99413 31.9642 2.29393 33.4773 2.73593C33.5611 2.7602 33.6457 2.77229 33.7285 2.77229C34.1075 2.77229 34.4582 2.52793 34.5736 2.15267C34.712 1.6934 34.4459 1.21068 33.9796 1.07458Z" fill="white"/>
<path id="Vector_11" d="M23.9023 0.118766C22.212 0.277407 20.5323 0.598039 18.9089 1.07213C18.4427 1.20822 18.1765 1.69095 18.3149 2.14941C18.4286 2.52641 18.7794 2.76995 19.1593 2.76995C19.242 2.76995 19.3267 2.75787 19.4114 2.73359C20.9253 2.29159 22.4924 1.99168 24.0699 1.84442C24.5537 1.79932 24.9089 1.37642 24.8631 0.899781C24.8172 0.423149 24.387 0.0745864 23.9023 0.118766Z" fill="white"/>
<path id="Vector_12" d="M15.3775 3.32365C15.1519 2.89982 14.6187 2.73692 14.1877 2.95872C13.3858 3.37209 12.5943 3.83319 11.8355 4.3281C11.4301 4.59246 11.3191 5.13063 11.5888 5.52927C11.7579 5.78063 12.0382 5.91664 12.3237 5.91664C12.4911 5.91664 12.6605 5.86981 12.8102 5.7719C13.5179 5.30909 14.2573 4.87927 15.0055 4.49354C15.4374 4.27183 15.603 3.74746 15.3775 3.32365Z" fill="white"/>
<path id="Vector_13" d="M49.9834 35.8245C49.5427 35.6208 49.0184 35.8097 48.8122 36.2431C48.4543 36.9971 48.0517 37.7425 47.6153 38.4583C47.3659 38.8691 47.5008 39.4012 47.9185 39.6473C48.0604 39.7314 48.2164 39.7713 48.3706 39.7713C48.6702 39.7713 48.9629 39.6205 49.1259 39.3501C49.5939 38.5831 50.0258 37.7849 50.4091 36.9763C50.6153 36.5429 50.4241 36.0273 49.9834 35.8245Z" fill="white"/>
<path id="Vector_14" d="M52.7587 23.5203C52.7129 23.0437 52.2846 22.6986 51.7981 22.7393C51.3134 22.7845 50.9583 23.2073 51.0041 23.684C51.0789 24.4492 51.1159 25.2284 51.1159 25.9998C51.1159 27.3778 50.997 28.7601 50.7634 30.1086C50.6824 30.5801 51.0049 31.0282 51.4844 31.1087C51.5337 31.1174 51.5839 31.1208 51.6332 31.1208C52.0546 31.1208 52.4274 30.8227 52.5005 30.4006C52.7516 28.956 52.8786 27.4758 52.8786 25.9999C52.8786 25.1739 52.8379 24.3392 52.7587 23.5203Z" fill="white"/>
<path id="Vector_15" d="M51.172 16.8058C50.8512 15.9728 50.4811 15.1444 50.0721 14.3444C49.8526 13.9171 49.323 13.7438 48.8885 13.9596C48.4532 14.1744 48.2777 14.6953 48.4964 15.1234C48.878 15.8697 49.2235 16.6427 49.5231 17.4201C49.6562 17.7659 49.991 17.98 50.3472 17.98C50.4511 17.98 50.556 17.9618 50.6599 17.9237C51.1156 17.7538 51.3448 17.2538 51.172 16.8058Z" fill="white"/>
<path id="Vector_16" d="M3.99046 13.9596C3.55515 13.7438 3.02543 13.9171 2.8069 14.3444C2.39802 15.1443 2.02788 15.9728 1.707 16.8058C1.53421 17.2538 1.76339 17.7539 2.21904 17.9238C2.32212 17.9618 2.42704 17.9801 2.53105 17.9801C2.88705 17.9801 3.22197 17.766 3.35592 17.4202C3.65554 16.6428 4.001 15.8698 4.38261 15.1236C4.60125 14.6953 4.42495 14.1745 3.99046 13.9596Z" fill="white"/>
<path id="Vector_17" d="M2.11419 30.1028C1.88069 28.7568 1.76254 27.3761 1.76254 25.9999C1.76254 25.2251 1.80044 24.4442 1.87356 23.6798C1.92024 23.2032 1.56506 22.7801 1.08039 22.7342C0.600042 22.6935 0.165554 23.0376 0.119802 23.5142C0.0405881 24.3341 0 25.1696 0 25.9999C0 27.4741 0.126929 28.9518 0.376343 30.3939C0.450393 30.8168 0.822296 31.115 1.24439 31.115C1.29376 31.115 1.34395 31.1115 1.39332 31.1028C1.87366 31.0222 2.1962 30.5741 2.11419 30.1028Z" fill="white"/>
<path id="Vector_18" d="M5.26117 38.4583C4.82492 37.7424 4.42215 36.9971 4.06439 36.2431C3.85814 35.8097 3.33381 35.6208 2.89312 35.8245C2.45244 36.0273 2.2621 36.5429 2.46741 36.9763C2.8517 37.7849 3.28257 38.5831 3.75063 39.3501C3.9163 39.6213 4.20805 39.7713 4.50765 39.7713C4.66185 39.7713 4.8179 39.7313 4.95806 39.6473C5.37571 39.4012 5.51141 38.869 5.26117 38.4583Z" fill="white"/>
<path id="Vector_19" d="M38.7747 22.5334H22.9157C21.9427 22.5334 21.1514 23.3117 21.1514 24.2685V34.665C21.1514 35.6219 21.9427 36.4002 22.9166 36.4002H31.3621L36.3917 41.3462C36.56 41.5118 36.7855 41.6002 37.0147 41.6002C37.1285 41.6002 37.243 41.5785 37.3523 41.5342C37.681 41.3999 37.8961 41.0835 37.8961 40.7334V36.4001H38.7755C39.7485 36.4001 40.5399 35.6217 40.5399 34.6642V24.2684C40.5399 23.3116 39.7485 22.5334 38.7747 22.5334ZM38.7756 34.6667H37.0147C36.5283 34.6667 36.1334 35.0549 36.1334 35.5333V38.6412L32.35 34.9206C32.1852 34.7576 31.9604 34.6667 31.727 34.6667L22.914 34.6641V24.2684L22.9157 24.2667L38.7773 24.2684L38.7756 34.6667Z" fill="white"/>
<path id="Vector_20" d="M29.0804 17.3333H13.2215C12.2485 17.3333 11.457 18.1115 11.457 19.0683V29.4648C11.457 30.4217 12.2485 31.2 13.2215 31.2H14.1009V35.5333C14.1009 35.8834 14.316 36.1998 14.6457 36.3341C14.7541 36.3783 14.8686 36.4 14.9823 36.4C15.2115 36.4 15.437 36.3117 15.6054 36.1461L20.635 31.2H22.0328C22.5191 31.2 22.914 30.8118 22.914 30.3334V24.2682L29.9645 24.2665C30.4509 24.2665 30.8458 23.8782 30.8458 23.3999V19.0682C30.8458 18.1115 30.0543 17.3333 29.0804 17.3333ZM29.0831 22.5333H22.9157C21.9428 22.5333 21.1514 23.3115 21.1514 24.2683V29.4666H20.2701C20.0366 29.4666 19.8119 29.5576 19.647 29.7205L15.8636 33.441V30.3331C15.8636 29.8547 15.4688 29.4665 14.9823 29.4665L13.2197 29.4647L13.2215 19.0665L29.0831 19.0682V22.5333Z" fill="white"/>
<path id="Vector_21" d="M30.8458 26.8667H25.558C25.0716 26.8667 24.6768 27.255 24.6768 27.7333C24.6768 28.2118 25.0716 28.6 25.558 28.6H30.8458C31.3323 28.6 31.7271 28.2118 31.7271 27.7333C31.7271 27.255 31.3323 26.8667 30.8458 26.8667Z" fill="white"/>
<path id="Vector_22" d="M36.1332 26.8667H34.3705C33.8841 26.8667 33.4893 27.255 33.4893 27.7333C33.4893 28.2118 33.8841 28.6 34.3705 28.6H36.1332C36.6197 28.6 37.0144 28.2118 37.0144 27.7333C37.0144 27.255 36.6197 26.8667 36.1332 26.8667Z" fill="white"/>
<path id="Vector_23" d="M36.1339 30.3333H30.8461C30.3596 30.3333 29.9648 30.7215 29.9648 31.1999C29.9648 31.6782 30.3596 32.0665 30.8461 32.0665H36.1339C36.6203 32.0665 37.0152 31.6782 37.0152 31.1999C37.0152 30.7215 36.6203 30.3333 36.1339 30.3333Z" fill="white"/>
<path id="Vector_24" d="M27.3207 30.3333H25.558C25.0716 30.3333 24.6768 30.7215 24.6768 31.1999C24.6768 31.6782 25.0716 32.0665 25.558 32.0665H27.3207C27.8072 32.0665 28.2019 31.6782 28.2019 31.1999C28.2019 30.7215 27.8072 30.3333 27.3207 30.3333Z" fill="white"/>
<path id="Vector_25" d="M17.7136 48.7007C16.9239 48.4061 16.1387 48.0671 15.3782 47.691C14.9437 47.4769 14.4132 47.6486 14.1946 48.0758C13.976 48.5039 14.1515 49.0248 14.5868 49.2397C15.4011 49.6428 16.2437 50.0068 17.0898 50.3214C17.1928 50.3594 17.2977 50.3777 17.4017 50.3777C17.7578 50.3777 18.0926 50.1636 18.2258 49.8178C18.3984 49.3696 18.1692 48.8696 17.7136 48.7007Z" fill="white"/>
<path id="Vector_26" d="M30.377 50.8516C30.3189 50.3767 29.8826 50.037 29.3971 50.0942C27.4458 50.3239 25.4267 50.3239 23.4676 50.0925C22.983 50.0352 22.5458 50.3741 22.4877 50.8491C22.4303 51.324 22.775 51.7556 23.258 51.8128C24.3083 51.9367 25.3783 51.9999 26.4394 51.9999C27.4978 51.9999 28.5642 51.9376 29.6067 51.8153C30.0907 51.7582 30.4351 51.3266 30.377 50.8516Z" fill="white"/>
<path id="Vector_27" d="M38.6832 48.0756C38.4636 47.6483 37.9341 47.475 37.4997 47.6908C36.7399 48.0669 35.9539 48.4067 35.1641 48.7004C34.7094 48.8694 34.4795 49.3695 34.6521 49.8175C34.7861 50.1633 35.121 50.3774 35.477 50.3774C35.5811 50.3774 35.6858 50.3592 35.7881 50.3211C36.6341 50.0056 37.4766 49.6416 38.291 49.2394C38.7263 49.0245 38.9017 48.5038 38.6832 48.0756Z" fill="white"/>
</g>
</svg>
