<svg width="92" height="92" viewBox="0 0 92 92" fill="none" xmlns="http://www.w3.org/2000/svg">
<g clip-path="url(#clip0)">
<path d="M24.5388 8.01978H67.4611C69.4449 8.01978 71.0529 9.62783 71.0529 11.6116V40.1666C71.0529 42.1503 69.4449 43.7584 67.4611 43.7584H57.9428V53.4563L42.4511 43.7584H24.5388C22.5551 43.7584 20.947 42.1503 20.947 40.1666V11.6116C20.947 9.62783 22.5551 8.01978 24.5388 8.01978Z" fill="#FFD396"/>
<path d="M67.4611 8.01978H46V45.9799L57.9428 53.4563V43.7584H67.4611C69.4449 43.7584 71.053 42.1503 71.053 40.1666V11.6116C71.053 9.62783 69.4449 8.01978 67.4611 8.01978Z" fill="#FFB554"/>
<path d="M46.5387 38.3706H3.61648C1.63272 38.3706 0.0246582 39.9787 0.0246582 41.9624V70.5174C0.0246582 72.5012 1.63272 74.1092 3.61648 74.1092H13.1348V82.1808C13.1348 83.6626 14.8282 84.5068 16.0115 83.615L28.6265 74.1092H46.5387C48.5225 74.1092 50.1306 72.5012 50.1306 70.5174V41.9624C50.1306 39.9787 48.5225 38.3706 46.5387 38.3706Z" fill="#86BEEC"/>
<path d="M45.4612 24.1829H88.3835C90.3672 24.1829 91.9753 25.7909 91.9753 27.7747V56.3297C91.9753 58.3134 90.3672 59.9215 88.3835 59.9215H78.8651V67.993C78.8651 69.4748 77.1718 70.3191 75.9884 69.4272L63.3734 59.9215H45.4612C43.4774 59.9215 41.8694 58.3134 41.8694 56.3297V27.7747C41.8694 25.7909 43.4774 24.1829 45.4612 24.1829Z" fill="#00DDC1"/>
<path d="M46.5388 38.3706H25.0776V76.7833L28.6265 74.1092H46.5388C48.5225 74.1092 50.1306 72.5012 50.1306 70.5174V41.9624C50.1306 39.9787 48.5225 38.3706 46.5388 38.3706Z" fill="#2681FF"/>
<path d="M88.3835 24.1829H66.9224V62.5956L75.9885 69.4272C77.1718 70.3189 78.8652 69.4747 78.8652 67.993V59.9217H88.3835C90.3673 59.9217 91.9753 58.3136 91.9753 56.3298V27.7749C91.9753 25.7909 90.3673 24.1829 88.3835 24.1829Z" fill="#00B4BC"/>
</g>
<defs>
<clipPath id="clip0">
<rect width="91.9506" height="91.9506" fill="white" transform="translate(0.0246582 0.0246582)"/>
</clipPath>
</defs>
</svg>
