<svg width="92" height="92" viewBox="0 0 92 92" fill="none" xmlns="http://www.w3.org/2000/svg">
<g clip-path="url(#clip0)">
<path d="M89.2817 5.79541H2.71877C1.23104 5.79541 0.0249023 7.00154 0.0249023 8.48928V60.2354C0.0249023 61.7231 1.23104 62.9292 2.71877 62.9292H89.2817C90.7694 62.9292 91.9755 61.7231 91.9755 60.2354V8.48928C91.9755 7.00154 90.7694 5.79541 89.2817 5.79541Z" fill="#FFE287"/>
<path d="M89.2817 62.9294H46.0002V5.79541H89.2817C90.7694 5.79541 91.9756 7.00154 91.9756 8.48928V60.2354C91.9756 61.7233 90.7694 62.9294 89.2817 62.9294Z" fill="#FFCB00"/>
<path d="M46.0003 86.2045C44.5125 86.2045 43.3064 84.9983 43.3064 83.5106V69.0835C43.3064 67.5958 44.5125 66.3896 46.0003 66.3896C47.488 66.3896 48.6941 67.5958 48.6941 69.0835V83.5106C48.6941 84.9983 47.488 86.2045 46.0003 86.2045Z" fill="#091D21"/>
<path d="M67.6408 86.2044H24.3594C22.8717 86.2044 21.6655 84.9983 21.6655 83.5105C21.6655 82.0228 22.8717 80.8167 24.3594 80.8167H67.6408C69.1286 80.8167 70.3347 82.0228 70.3347 83.5105C70.3347 84.9983 69.1286 86.2044 67.6408 86.2044Z" fill="#006B6C"/>
<path d="M67.641 80.8167H46.0002V86.2044H67.641C69.1287 86.2044 70.3348 84.9983 70.3348 83.5105C70.3348 82.0228 69.1287 80.8167 67.641 80.8167Z" fill="#004647"/>
<path d="M89.2817 71.7771H2.71877C1.23104 71.7771 0.0249023 70.571 0.0249023 69.0833V60.2354H91.9755V69.0833C91.9755 70.571 90.7694 71.7771 89.2817 71.7771Z" fill="#006B6C"/>
<path d="M46.0002 71.7771H89.2817C90.7694 71.7771 91.9756 70.571 91.9756 69.0833V60.2354H46.0002V71.7771Z" fill="#004647"/>
<path d="M54.6563 48.6936H37.3438C35.856 48.6936 34.6499 47.4875 34.6499 45.9998V31.3663C34.6499 30.4903 35.0759 29.669 35.7919 29.1642C36.5081 28.6597 37.4248 28.5347 38.25 28.8294L46.0001 31.5977L53.7501 28.8294C54.5753 28.5345 55.4916 28.6597 56.2082 29.1642C56.9242 29.669 57.3502 30.4903 57.3502 31.3663V45.9998C57.3502 47.4875 56.1441 48.6936 54.6563 48.6936Z" fill="#004647"/>
<path d="M66.1983 41.1194C64.7105 41.1194 63.5044 39.9133 63.5044 38.4256V27.2444C63.5044 25.7567 64.7105 24.5505 66.1983 24.5505C67.686 24.5505 68.8921 25.7567 68.8921 27.2444V38.4256C68.8921 39.9133 67.686 41.1194 66.1983 41.1194Z" fill="#091D21"/>
<path d="M54.6565 48.6939C56.1443 48.6939 57.3504 47.4878 57.3504 46.0001V31.3666C57.3504 30.4906 56.9244 29.6693 56.2084 29.1645C55.492 28.6598 54.5755 28.5348 53.7503 28.8297L46.0002 31.5979V48.6939H54.6565Z" fill="#091D21"/>
<path d="M46.0003 37.1518C45.6938 37.1518 45.3872 37.0996 45.0943 36.9949L24.8962 29.7812C23.8241 29.3983 23.1084 28.3828 23.1084 27.2443C23.1084 26.1059 23.8241 25.0903 24.8962 24.7074L45.0943 17.494C45.6801 17.2846 46.3205 17.2846 46.9064 17.494L67.1044 24.7074C68.1766 25.0903 68.8923 26.1059 68.8923 27.2443C68.8923 28.3828 68.1766 29.3983 67.1044 29.7812L46.9064 36.9949C46.6134 37.0996 46.3069 37.1518 46.0003 37.1518Z" fill="#006B6C"/>
<path d="M46.9063 36.9949L67.1043 29.7813C68.1765 29.3984 68.8922 28.3828 68.8922 27.2444C68.8922 26.106 68.1765 25.0904 67.1043 24.7075L46.9063 17.4941C46.6134 17.3894 46.3068 17.3369 46.0002 17.3369V37.1517C46.3068 37.1519 46.6134 37.0996 46.9063 36.9949Z" fill="#004647"/>
</g>
<defs>
<clipPath id="clip0">
<rect width="91.9506" height="91.9506" fill="white" transform="translate(0.0249023 0.0246582)"/>
</clipPath>
</defs>
</svg>
