<svg width="585" height="437" viewBox="0 0 585 437" fill="none" xmlns="http://www.w3.org/2000/svg">
<path d="M560.625 48.5556V385.604L536.25 388.444V0C441.309 2.88906 353.316 18.4997 292.451 56.2273C231.611 18.4997 143.715 2.88906 48.75 0V388.444L24.375 385.604V48.5556H0V412.722H220.764C256.815 412.722 260.764 437 292.451 437C324.236 437 328.063 412.722 364.162 412.722H585V48.5556H560.625ZM268.125 379.826C220.691 361.083 167.286 349.017 97.5 343.798V51.2261C154.83 56.0088 219.278 67.6136 268.125 97.888V379.826ZM487.5 343.798C417.714 349.017 364.309 361.083 316.875 379.826V97.888C365.722 67.6136 430.17 56.0088 487.5 51.2261V343.798V343.798Z" fill="white"/>
</svg>
