<svg width="60" height="45" viewBox="0 0 60 45" fill="none" xmlns="http://www.w3.org/2000/svg">
<path id="Vector" d="M57.5 5V39.7075L55 40V0C45.2625 0.2975 36.2375 1.905 29.995 5.79C23.755 1.905 14.74 0.2975 5 0V40L2.5 39.7075V5H0V42.5H22.6425C26.34 42.5 26.745 45 29.995 45C33.255 45 33.6475 42.5 37.3499 42.5H60V5H57.5ZM27.5 39.1125C22.635 37.1825 17.1575 35.94 10 35.4025V5.275C15.88 5.7675 22.4901 6.9625 27.5 10.08V39.1125ZM50 35.4025C42.8425 35.94 37.365 37.1825 32.5 39.1125V10.08C37.5099 6.9625 44.12 5.7675 50 5.275V35.4025Z" fill="white"/>
</svg>
