<svg width="77" height="77" viewBox="0 0 77 77" fill="none" xmlns="http://www.w3.org/2000/svg">
<g clip-path="url(#clip0)">
<path d="M43.6986 76.8496H31.3436C29.2799 76.8496 27.6012 75.1742 27.6012 73.1145V45.3017H20.393C18.3294 45.3017 16.6506 43.6256 16.6506 41.5666V29.6487C16.6506 27.589 18.3294 25.9136 20.393 25.9136H27.6012V19.9456C27.6012 14.028 29.463 8.99348 32.9846 5.38704C36.5222 1.76415 41.466 -0.150391 47.2815 -0.150391L56.704 -0.135117C58.7641 -0.131592 60.4399 1.54385 60.4399 3.59998V14.6654C60.4399 16.7251 58.7618 18.4005 56.6987 18.4005L50.3546 18.4029C48.4198 18.4029 47.9272 18.79 47.8218 18.9087C47.6482 19.1055 47.4416 19.6618 47.4416 21.198V25.913H56.2219C56.8829 25.913 57.5233 26.0757 58.0737 26.3824C59.2609 27.0445 59.999 28.2964 59.999 29.6493L59.9943 41.5672C59.9943 43.6256 58.3156 45.3011 56.2519 45.3011H47.4416V73.1145C47.4416 75.1742 45.7623 76.8496 43.6986 76.8496ZM32.1241 72.3355H42.9181V43.2808C42.9181 41.9055 44.0394 40.787 45.4167 40.787H55.4714L55.4756 30.4277H45.4162C44.0388 30.4277 42.9181 29.3091 42.9181 27.9339V21.198C42.9181 19.4345 43.0976 17.4289 44.4314 15.9214C46.043 14.0991 48.5829 13.8888 50.3534 13.8888L55.917 13.8865V4.37778L47.2779 4.36368C37.9319 4.36368 32.1241 10.3347 32.1241 19.9456V27.9339C32.1241 29.3085 31.0034 30.4277 29.626 30.4277H21.1735V40.787H29.626C31.0034 40.787 32.1241 41.9055 32.1241 43.2808V72.3355ZM56.6952 4.37895H56.6957H56.6952Z" fill="black"/>
</g>
<defs>
<clipPath id="clip0">
<rect width="77" height="77" rx="38.5" fill="white"/>
</clipPath>
</defs>
</svg>
