<svg width="438" height="20" viewBox="0 0 438 20" fill="none" xmlns="http://www.w3.org/2000/svg">
<g clip-path="url(#clip0)">
<path d="M236.922 6.81512L233.156 0.292738C232.994 0.0121909 232.636 -0.0831998 232.356 0.0782845L230.182 1.33352C229.901 1.49532 229.805 1.85364 229.967 2.13391L230.014 2.21399L219.109 9.90309C218.861 10.0777 218.788 10.4124 218.939 10.6749L218.96 10.7111L217.294 11.6733C217.013 11.8351 216.917 12.1934 217.079 12.4737L218.334 14.648C218.495 14.9268 218.853 15.025 219.135 14.8624L220.801 13.9003L220.822 13.9363C220.975 14.2005 221.302 14.3016 221.575 14.1752L224.943 12.618C225.105 12.8609 225.308 13.0736 225.543 13.2459L223.314 19.2084C223.2 19.5116 223.354 19.8491 223.657 19.9625C223.96 20.0759 224.298 19.922 224.411 19.6189L226.626 13.6952C226.748 13.7139 226.873 13.7238 227 13.7238C227.128 13.7238 227.253 13.7141 227.375 13.6954L229.59 19.6189C229.703 19.922 230.04 20.0759 230.344 19.9625C230.647 19.8492 230.801 19.5116 230.687 19.2084L228.458 13.246C229.071 12.7963 229.469 12.0715 229.469 11.255C229.469 11.0175 229.435 10.7881 229.372 10.5707L233.687 8.57625L233.733 8.65629C233.894 8.93461 234.251 9.03371 234.533 8.87075L236.707 7.61551C236.988 7.45371 237.084 7.09539 236.922 6.81512ZM219.056 13.5546L218.387 12.3952L219.546 11.7259L220.215 12.8853L219.056 13.5546ZM227 12.5518C226.285 12.5518 225.704 11.97 225.704 11.255C225.704 10.5399 226.285 9.95813 227 9.95813C227.716 9.95813 228.297 10.5399 228.297 11.255C228.297 11.9701 227.716 12.5518 227 12.5518ZM228.784 9.55117C228.335 9.08039 227.701 8.78625 227 8.78625C225.639 8.78625 224.532 9.89375 224.532 11.255C224.532 11.3415 224.536 11.4269 224.545 11.5111L221.569 12.8869L220.222 10.5524L230.602 3.23301L233.098 7.55711L228.784 9.55117ZM234.455 7.56289L231.275 2.05539L232.434 1.3861L235.614 6.8936L234.455 7.56289Z" fill="#EFEDE1"/>
</g>
<line x1="438" y1="11.5" x2="243" y2="11.5" stroke="#EFEDE1" stroke-width="3"/>
<path d="M210 11.5L0 11.5" stroke="#EFEDE1" stroke-width="3"/>
<defs>
<clipPath id="clip0">
<rect width="20" height="20" fill="white" transform="translate(217)"/>
</clipPath>
</defs>
</svg>
