<svg width="77" height="77" viewBox="0 0 77 77" fill="none" xmlns="http://www.w3.org/2000/svg">
<g clip-path="url(#clip0)">
<path d="M76.9247 22.6382C76.7443 18.5469 76.0827 15.7342 75.1349 13.2969C74.1572 10.7098 72.653 8.39355 70.6822 6.46806C68.7567 4.5126 66.4252 2.99312 63.8681 2.03067C61.4167 1.08291 58.6187 0.421293 54.5274 0.240907C50.4055 0.0452435 49.097 0 38.6428 0C28.1886 0 26.88 0.0452435 22.7735 0.22563C18.6822 0.406016 15.8694 1.06822 13.4327 2.01539C10.845 2.99312 8.52881 4.49732 6.60331 6.46806C4.64785 8.39355 3.12896 10.7251 2.16592 13.2822C1.21816 15.7342 0.556547 18.5316 0.376161 22.6229C0.180497 26.7448 0.135254 28.0533 0.135254 38.5075C0.135254 48.9617 0.180497 50.2702 0.360884 54.3768C0.54127 58.4681 1.20347 61.2809 2.15123 63.7181C3.12896 66.3053 4.64785 68.6215 6.60331 70.547C8.52881 72.5024 10.8603 74.0219 13.4175 74.9844C15.8694 75.9321 18.6669 76.5937 22.7588 76.7741C26.8648 76.9551 28.1739 76.9998 38.6281 76.9998C49.0823 76.9998 50.3908 76.9551 54.4974 76.7741C58.5887 76.5937 61.4014 75.9321 63.8381 74.9844C69.0129 72.9837 73.1042 68.8924 75.1049 63.7181C76.0521 61.2662 76.7143 58.4681 76.8947 54.3768C77.0751 50.2702 77.1203 48.9617 77.1203 38.5075C77.1203 28.0533 77.105 26.7448 76.9247 22.6382ZM69.9907 54.076C69.825 57.8365 69.1933 59.8672 68.6668 61.2209C67.373 64.5754 64.7107 67.2377 61.3562 68.5316C60.0024 69.0581 57.9571 69.6897 54.2112 69.8548C50.1499 70.0358 48.9319 70.0804 38.6581 70.0804C28.3842 70.0804 27.1509 70.0358 23.1043 69.8548C19.3438 69.6897 17.3131 69.0581 15.9593 68.5316C14.29 67.9146 12.7705 66.9369 11.5372 65.6583C10.2586 64.4097 9.28091 62.9055 8.66395 61.2362C8.13748 59.8824 7.50583 57.8365 7.34072 54.0913C7.15975 50.0299 7.11509 48.8113 7.11509 38.5375C7.11509 28.2637 7.15975 27.0304 7.34072 22.9843C7.50583 19.2238 8.13748 17.1931 8.66395 15.8393C9.28091 14.1694 10.2586 12.6506 11.5525 11.4166C12.8005 10.1381 14.3047 9.16034 15.9746 8.54397C17.3284 8.0175 19.3743 7.38586 23.1195 7.22016C27.1809 7.03977 28.3995 6.99453 38.6727 6.99453C48.9618 6.99453 50.1799 7.03977 54.2265 7.22016C57.987 7.38586 60.0177 8.0175 61.3715 8.54397C63.0408 9.16034 64.5603 10.1381 65.7936 11.4166C67.0722 12.6652 68.0499 14.1694 68.6668 15.8393C69.1933 17.1931 69.825 19.2385 69.9907 22.9843C70.171 27.0456 70.2163 28.2637 70.2163 38.5375C70.2163 48.8113 70.171 50.0146 69.9907 54.076Z" fill="black"/>
<path d="M38.6428 18.7271C27.7226 18.7271 18.8625 27.5866 18.8625 38.5073C18.8625 49.428 27.7226 58.2875 38.6428 58.2875C49.5635 58.2875 58.423 49.428 58.423 38.5073C58.423 27.5866 49.5635 18.7271 38.6428 18.7271ZM38.6428 51.3382C31.5583 51.3382 25.8118 45.5923 25.8118 38.5073C25.8118 31.4223 31.5583 25.6763 38.6428 25.6763C45.7278 25.6763 51.4737 31.4223 51.4737 38.5073C51.4737 45.5923 45.7278 51.3382 38.6428 51.3382Z" fill="black"/>
<path d="M63.8233 17.9449C63.8233 20.495 61.7556 22.5627 59.2049 22.5627C56.6548 22.5627 54.5872 20.495 54.5872 17.9449C54.5872 15.3942 56.6548 13.3271 59.2049 13.3271C61.7556 13.3271 63.8233 15.3942 63.8233 17.9449Z" fill="black"/>
</g>
<defs>
<clipPath id="clip0">
<rect width="77" height="77" fill="white"/>
</clipPath>
</defs>
</svg>
