<svg width="77" height="77" viewBox="0 0 77 77" fill="none" xmlns="http://www.w3.org/2000/svg">
<g clip-path="url(#clip0)">
<path d="M10.395 0.641602C7.57172 0.641602 5.005 1.66832 3.08 3.59332C1.02672 5.6466 0 8.21317 0 10.9082C0 13.7315 1.155 16.2982 3.08 18.2232C5.005 20.1482 7.7 21.3032 10.2667 21.1749C10.2667 21.1749 10.395 21.1749 10.5234 21.1749C13.0901 21.1749 15.5284 20.1482 17.4534 18.2232C19.3784 16.2982 20.5334 13.7315 20.5334 10.9082C20.6617 8.21317 19.5067 5.64645 17.5817 3.72145C15.6567 1.66817 13.09 0.641602 10.395 0.641602ZM15.6567 16.4266C14.245 17.8383 12.32 18.7366 10.2667 18.6083C8.34172 18.6083 6.28843 17.8383 4.87672 16.4266C3.33672 15.0149 2.56672 12.9616 2.56672 10.9083C2.56672 8.85503 3.33672 6.93003 4.87672 5.39003C6.28843 3.97832 8.21343 3.20832 10.395 3.20832C12.32 3.20832 14.245 3.97832 15.6567 5.39003C17.1967 6.93003 17.9667 8.85503 17.9667 10.9083C17.9667 12.9616 17.1967 15.0149 15.6567 16.4266Z" fill="black"/>
<path d="M15.4002 23.7417H5.00516C2.95188 23.7417 1.28345 25.41 1.28345 27.5917V72.5084C1.28345 74.5617 3.08016 76.3584 5.13345 76.3584H15.4002C17.4534 76.3584 19.2502 74.5617 19.2502 72.6367V27.5917C19.2502 25.5383 17.4534 23.7417 15.4002 23.7417ZM16.6834 72.6367C16.6834 73.2784 16.0417 73.7917 15.4002 73.7917H5.13345C4.49173 73.7917 3.85016 73.15 3.85016 72.5084V27.5917C3.85016 26.95 4.36345 26.3084 5.00516 26.3084H15.4002C16.0419 26.3084 16.6834 26.9501 16.6834 27.5917V72.6367Z" fill="black"/>
<path d="M59.0333 22.458H56.3383C51.3333 22.458 46.585 24.6397 43.505 28.1047V26.308C43.505 25.0247 42.2218 23.7413 40.9383 23.7413H28.105C26.95 23.7413 25.5383 24.768 25.5383 26.1796V74.0479C25.5383 75.4596 26.95 76.3579 28.105 76.3579H42.2218C43.3768 76.3579 44.7885 75.4596 44.7885 74.0479V46.3279C44.7885 42.0929 47.8685 38.7561 51.8468 38.7561C53.9001 38.7561 55.8251 39.5261 57.2368 40.9379C58.5201 42.0929 59.0335 43.8896 59.0335 46.1996V73.7913C59.0335 75.0746 60.3168 76.358 61.6002 76.358H74.4335C75.7168 76.358 77.0002 75.0747 77.0002 73.7913V40.6813C77 30.4147 69.1718 22.458 59.0333 22.458ZM74.4333 73.663L74.305 73.7913H61.7283L61.6001 46.1997C61.6001 43.1197 60.83 40.8097 59.1618 39.1414C57.2368 37.2164 54.67 36.1897 51.975 36.1897C46.585 36.318 42.35 40.6814 42.35 46.328V73.7913H28.2333V26.308H40.9383L41.0666 26.4363V34.5213L44.5316 31.0563L44.6599 30.928C47.2266 27.3347 51.7182 25.0247 56.4666 25.0247H59.1616C67.7599 25.0247 74.4333 31.9547 74.4333 40.6814V73.663Z" fill="black"/>
</g>
<defs>
<clipPath id="clip0">
<rect width="77" height="77" fill="white"/>
</clipPath>
</defs>
</svg>
