<svg width="30" height="51" viewBox="0 0 30 51" fill="none" xmlns="http://www.w3.org/2000/svg">
<g id="talks 1" clip-path="url(#clip0)">
<path id="Vector" d="M15 4.21043C12.9318 4.21043 11.25 6.09881 11.25 8.42085V23.1574C11.25 25.4794 12.9318 27.3677 15 27.3677C17.0682 27.3677 18.75 25.4794 18.75 23.1574V8.42085C18.75 6.09881 17.0682 4.21043 15 4.21043ZM15 0C19.1418 0 22.5 3.77044 22.5 8.42085V23.1574C22.5 27.8078 19.1418 31.5782 15 31.5782C10.8582 31.5782 7.5 27.8078 7.5 23.1574V8.42085C7.5 3.77044 10.8582 0 15 0ZM1.90735e-06 18.9469V23.1574C1.90735e-06 32.4582 6.71624 39.999 15 39.999C23.2838 39.999 30 32.4582 30 23.1574V18.9469H26.25V23.1574C26.25 30.1236 21.2044 35.7887 15 35.7887C8.79559 35.7887 3.75 30.1236 3.75 23.1574V18.9469H1.90735e-06ZM13.1249 46.3147V42.1043H16.8751V46.3147H24.375V50.5251H5.62495V46.3147H13.1249Z" fill="white"/>
</g>
<defs>
<clipPath id="clip0">
<rect width="30" height="50.5251" fill="white" transform="matrix(-1 0 0 1 30 0)"/>
</clipPath>
</defs>
</svg>
