<svg width="295" height="440" viewBox="0 0 295 440" fill="none" xmlns="http://www.w3.org/2000/svg">
<path d="M147.5 36.6667C167.837 36.6667 184.375 53.1117 184.375 73.3333V201.667C184.375 221.888 167.837 238.333 147.5 238.333C127.163 238.333 110.625 221.888 110.625 201.667V73.3333C110.625 53.1117 127.163 36.6667 147.5 36.6667ZM147.5 0C106.772 0 73.75 32.835 73.75 73.3333V201.667C73.75 242.165 106.772 275 147.5 275C188.228 275 221.25 242.165 221.25 201.667V73.3333C221.25 32.835 188.228 0 147.5 0ZM295 165V201.667C295 282.663 228.957 348.333 147.5 348.333C66.0431 348.333 0 282.663 0 201.667V165H36.875V201.667C36.875 262.332 86.4903 311.667 147.5 311.667C208.51 311.667 258.125 262.332 258.125 201.667V165H295ZM165.938 403.333V366.667H129.062V403.333H55.3125V440H239.688V403.333H165.938Z" fill="white"/>
</svg>
