<svg width="92" height="92" viewBox="0 0 92 92" fill="none" xmlns="http://www.w3.org/2000/svg">
<g clip-path="url(#clip0)">
<path d="M56.0434 88.5201L53.1699 65.5324C53.1156 65.0981 52.9046 64.6985 52.5764 64.4088C52.2482 64.1191 51.8256 63.9592 51.3878 63.9592H39.894C39.4563 63.9592 39.0336 64.1191 38.7054 64.4088C38.3773 64.6985 38.1662 65.0981 38.1119 65.5324L35.2385 88.5201C35.2069 88.7728 35.2294 89.0293 35.3045 89.2726C35.3797 89.5159 35.5057 89.7405 35.6742 89.9314C35.8427 90.1223 36.0499 90.2751 36.282 90.3799C36.5142 90.4846 36.7659 90.5387 37.0206 90.5387H54.2613C54.5159 90.5387 54.7677 90.4846 54.9998 90.3799C55.2319 90.2751 55.4391 90.1223 55.6076 89.9314C55.7762 89.7405 55.9022 89.5159 55.9773 89.2726C56.0524 89.0293 56.0749 88.7728 56.0434 88.5201Z" fill="url(#paint0_linear)"/>
<path d="M63.8779 87.2486C63.5075 87.0007 54.701 81.2 45.641 81.2C36.581 81.2 27.7746 87.0007 27.4041 87.2486C27.0834 87.4624 26.84 87.7737 26.7099 88.1365C26.5798 88.4993 26.5699 88.8943 26.6816 89.2632C26.7932 89.6321 27.0207 89.9553 27.3302 90.185C27.6397 90.4146 28.0148 90.5387 28.4003 90.5387H62.8818C63.2672 90.5387 63.6424 90.4146 63.9519 90.185C64.2614 89.9553 64.4888 89.6321 64.6005 89.2632C64.7122 88.8943 64.7022 88.4993 64.5721 88.1365C64.442 87.7737 64.1986 87.4624 63.8779 87.2486Z" fill="url(#paint1_linear)"/>
<path d="M87.6652 0.743164H3.61662C2.02965 0.743164 0.743164 2.02965 0.743164 3.61662V70.4245C0.743164 72.0115 2.02965 73.298 3.61662 73.298H87.6652C89.2522 73.298 90.5387 72.0115 90.5387 70.4245V3.61662C90.5387 2.02965 89.2522 0.743164 87.6652 0.743164Z" fill="url(#paint2_linear)"/>
<path d="M90.5387 61.0857H0.743164V70.4244C0.743164 71.1865 1.0459 71.9174 1.58478 72.4563C2.12366 72.9952 2.85453 73.2979 3.61662 73.2979H87.6652C88.4273 73.2979 89.1582 72.9952 89.6971 72.4563C90.236 71.9174 90.5387 71.1865 90.5387 70.4244V61.0857Z" fill="url(#paint3_linear)"/>
<path d="M48.5143 69.3468H42.7674C42.1958 69.3468 41.6477 69.1198 41.2435 68.7156C40.8394 68.3114 40.6123 67.7633 40.6123 67.1917C40.6123 66.6201 40.8394 66.072 41.2435 65.6678C41.6477 65.2637 42.1958 65.0366 42.7674 65.0366H48.5143C49.0859 65.0366 49.634 65.2637 50.0382 65.6678C50.4424 66.072 50.6694 66.6201 50.6694 67.1917C50.6694 67.7633 50.4424 68.3114 50.0382 68.7156C49.634 69.1198 49.0859 69.3468 48.5143 69.3468Z" fill="#9595AC"/>
<path d="M66.1143 9.36353H0.743164V61.0857H66.1143C66.6859 61.0857 67.234 60.8587 67.6382 60.4545C68.0424 60.0504 68.2694 59.5022 68.2694 58.9307V11.5186C68.2694 10.9471 68.0424 10.3989 67.6382 9.99474C67.234 9.59058 66.6859 9.36353 66.1143 9.36353Z" fill="url(#paint4_linear)"/>
<path d="M8.64508 23.7308H21.5756C22.1472 23.7308 22.6954 23.5038 23.0995 23.0996C23.5037 22.6955 23.7307 22.1473 23.7307 21.5757C23.7307 21.0042 23.5037 20.456 23.0995 20.0519C22.6954 19.6477 22.1472 19.4207 21.5756 19.4207H8.64508C8.07352 19.4207 7.52536 19.6477 7.1212 20.0519C6.71704 20.456 6.48999 21.0042 6.48999 21.5757C6.48999 22.1473 6.71704 22.6955 7.1212 23.0996C7.52536 23.5038 8.07352 23.7308 8.64508 23.7308Z" fill="#FDECBF"/>
<path d="M8.64508 32.3512H27.3226C27.8941 32.3512 28.4423 32.1241 28.8464 31.72C29.2506 31.3158 29.4776 30.7677 29.4776 30.1961C29.4776 29.6245 29.2506 29.0764 28.8464 28.6722C28.4423 28.2681 27.8941 28.041 27.3226 28.041H8.64508C8.07352 28.041 7.52536 28.2681 7.1212 28.6722C6.71704 29.0764 6.48999 29.6245 6.48999 30.1961C6.48999 30.7677 6.71704 31.3158 7.1212 31.72C7.52536 32.1241 8.07352 32.3512 8.64508 32.3512Z" fill="#FDECBF"/>
<path d="M8.64508 40.9716H27.3226C27.8941 40.9716 28.4423 40.7445 28.8464 40.3403C29.2506 39.9362 29.4776 39.388 29.4776 38.8165C29.4776 38.2449 29.2506 37.6967 28.8464 37.2926C28.4423 36.8884 27.8941 36.6614 27.3226 36.6614H8.64508C8.07352 36.6614 7.52536 36.8884 7.1212 37.2926C6.71704 37.6967 6.48999 38.2449 6.48999 38.8165C6.48999 39.388 6.71704 39.9362 7.1212 40.3403C7.52536 40.7445 8.07352 40.9716 8.64508 40.9716Z" fill="#FDECBF"/>
<path d="M14.392 45.2817H8.64508C8.07352 45.2817 7.52536 45.5088 7.1212 45.913C6.71704 46.3171 6.48999 46.8653 6.48999 47.4368C6.48999 48.0084 6.71704 48.5566 7.1212 48.9607C7.52536 49.3649 8.07352 49.5919 8.64508 49.5919H14.392C14.9636 49.5919 15.5117 49.3649 15.9159 48.9607C16.32 48.5566 16.5471 48.0084 16.5471 47.4368C16.5471 46.8653 16.32 46.3171 15.9159 45.913C15.5117 45.5088 14.9636 45.2817 14.392 45.2817Z" fill="#FDECBF"/>
<path d="M31.6326 45.2817H23.0123C22.4407 45.2817 21.8925 45.5088 21.4884 45.913C21.0842 46.3171 20.8572 46.8653 20.8572 47.4368C20.8572 48.0084 21.0842 48.5566 21.4884 48.9607C21.8925 49.3649 22.4407 49.5919 23.0123 49.5919H31.6326C32.2042 49.5919 32.7524 49.3649 33.1565 48.9607C33.5607 48.5566 33.7877 48.0084 33.7877 47.4368C33.7877 46.8653 33.5607 46.3171 33.1565 45.913C32.7524 45.5088 32.2042 45.2817 31.6326 45.2817Z" fill="#FDECBF"/>
<path d="M80.8408 33.0696H72.5796V24.8084C72.5796 24.5226 72.4661 24.2485 72.264 24.0465C72.0619 23.8444 71.7879 23.7309 71.5021 23.7309H62.8817C62.5959 23.7309 62.3218 23.8444 62.1198 24.0465C61.9177 24.2485 61.8042 24.5226 61.8042 24.8084V33.0696H48.8736V19.8944C48.8736 16.9628 46.5793 14.4816 43.6489 14.3946C42.9282 14.3736 42.2106 14.4973 41.5385 14.7584C40.8664 15.0195 40.2535 15.4127 39.736 15.9147C39.2185 16.4168 38.8069 17.0175 38.5256 17.6814C38.2443 18.3453 38.0989 19.0588 38.0981 19.7798V38.4573C38.0981 39.8862 38.6658 41.2566 39.6762 42.267C40.6866 43.2774 42.057 43.8451 43.4859 43.8451H52.4654V60.9062C52.4654 60.9538 52.4844 60.9995 52.518 61.0332C52.5517 61.0669 52.5974 61.0858 52.645 61.0858H90.5387V42.7675C90.5387 40.1955 89.517 37.7288 87.6983 35.91C85.8796 34.0913 83.4129 33.0696 80.8408 33.0696Z" fill="url(#paint5_linear)"/>
<path d="M80.8408 33.0695H77.2169L67.2612 42.5923L58.1712 33.0695H48.8736V22.2256C48.5464 22.0351 48.1746 21.9348 47.7961 21.9348H39.1757C38.7971 21.9348 38.4253 22.0351 38.0981 22.2256V38.4572C38.0981 39.8861 38.6658 41.2565 39.6762 42.2669C40.6866 43.2773 42.057 43.8449 43.4859 43.8449H52.4654V61.0857H90.5387V42.7674C90.5387 40.1953 89.517 37.7286 87.6983 35.9099C85.8796 34.0912 83.4129 33.0695 80.8408 33.0695Z" fill="url(#paint6_linear)"/>
<path d="M82.6366 61.0859V49.9512C82.6366 49.3797 82.4096 48.8315 82.0054 48.4274C81.6012 48.0232 81.0531 47.7961 80.4815 47.7961C79.9099 47.7961 79.3618 48.0232 78.9576 48.4274C78.5535 48.8315 78.3264 49.3797 78.3264 49.9512V61.0859H82.6366Z" fill="#60C6BE"/>
<path d="M75.8122 11.1594H58.5714C58.2857 11.1594 58.0116 11.273 57.8095 11.475C57.6074 11.6771 57.4939 11.9512 57.4939 12.237V20.8573C57.4939 23.4294 58.5156 25.8961 60.3343 27.7148C62.1531 29.5335 64.6198 30.5553 67.1918 30.5553C69.7639 30.5553 72.2306 29.5335 74.0493 27.7148C75.868 25.8961 76.8897 23.4294 76.8897 20.8573V12.237C76.8897 11.9512 76.7762 11.6771 76.5741 11.475C76.3721 11.273 76.098 11.1594 75.8122 11.1594Z" fill="url(#paint7_linear)"/>
<path d="M81.1999 10.8003C80.8136 7.47081 79.4774 4.96354 77.7309 4.08947C74.6297 2.53906 68.9122 2.53906 64.3183 2.53906H54.2612C53.9754 2.53906 53.7013 2.65259 53.4993 2.85467C53.2972 3.05675 53.1837 3.33083 53.1837 3.61661C53.1837 5.79182 54.993 7.80324 56.3983 9.03703C54.0236 9.70995 51.4199 9.7227 51.3877 9.7227C51.217 9.72268 51.0486 9.76326 50.8966 9.84109C50.7445 9.91892 50.6132 10.0318 50.5133 10.1703C50.4135 10.3089 50.348 10.4692 50.3223 10.6381C50.2966 10.8069 50.3114 10.9795 50.3655 11.1415C50.4341 11.3471 52.1219 16.188 58.5714 16.188C62.0176 16.188 64.104 15.2045 65.3017 14.2843L66.1695 16.8884C66.2411 17.1028 66.3784 17.2894 66.5618 17.4215C66.7453 17.5536 66.9657 17.6247 67.1918 17.6247C70.0403 17.6247 72.2932 16.0276 73.6897 14.6765L75.8269 21.2137C75.8687 21.4653 75.9985 21.694 76.1931 21.8589C76.3877 22.0239 76.6346 22.1145 76.8897 22.1145C77.1381 22.1145 77.4236 22.0676 77.5797 21.8647C80.8407 17.6247 81.51 13.4715 81.1999 10.8003Z" fill="url(#paint8_linear)"/>
</g>
<defs>
<linearGradient id="paint0_linear" x1="35.0323" y1="89.2943" x2="56.2495" y2="68.0771" gradientUnits="userSpaceOnUse">
<stop offset="0.015" stop-color="#83839E"/>
<stop offset="1" stop-color="#B8B8C7"/>
</linearGradient>
<linearGradient id="paint1_linear" x1="35.7508" y1="98.6331" x2="55.5313" y2="78.8525" gradientUnits="userSpaceOnUse">
<stop offset="0.011" stop-color="#606082"/>
<stop offset="1" stop-color="#83839E"/>
</linearGradient>
<linearGradient id="paint2_linear" x1="5.89491" y1="76.7666" x2="85.387" y2="-2.72545" gradientUnits="userSpaceOnUse">
<stop offset="0.011" stop-color="#DCDCE3"/>
<stop offset="1" stop-color="#EDEDF1"/>
</linearGradient>
<linearGradient id="paint3_linear" x1="10268.2" y1="6276.74" x2="11179.2" y2="-421.446" gradientUnits="userSpaceOnUse">
<stop offset="0.011" stop-color="#606082"/>
<stop offset="1" stop-color="#83839E"/>
</linearGradient>
<linearGradient id="paint4_linear" x1="4.37863" y1="64.7212" x2="63.3716" y2="5.72805" gradientUnits="userSpaceOnUse">
<stop offset="0.011" stop-color="#FAD46A"/>
<stop offset="1" stop-color="#FCE6AA"/>
</linearGradient>
<linearGradient id="paint5_linear" x1="65.4051" y1="38.2321" x2="77.9147" y2="25.7225" gradientUnits="userSpaceOnUse">
<stop offset="0.004" stop-color="#F1CCCD"/>
<stop offset="1" stop-color="#FAEEEE"/>
</linearGradient>
<linearGradient id="paint6_linear" x1="49.7076" y1="56.2665" x2="66.253" y2="39.721" gradientUnits="userSpaceOnUse">
<stop offset="0.011" stop-color="#60C6BE"/>
<stop offset="1" stop-color="#80D1CB"/>
</linearGradient>
<linearGradient id="paint7_linear" x1="6434.77" y1="2864.83" x2="8188.31" y2="1111.27" gradientUnits="userSpaceOnUse">
<stop offset="0.004" stop-color="#F1CCCD"/>
<stop offset="1" stop-color="#FAEEEE"/>
</linearGradient>
<linearGradient id="paint8_linear" x1="10064.5" y1="2156.31" x2="11816.8" y2="-614.961" gradientUnits="userSpaceOnUse">
<stop offset="0.011" stop-color="#606082"/>
<stop offset="1" stop-color="#83839E"/>
</linearGradient>
<clipPath id="clip0">
<rect width="91.9506" height="91.9506" fill="white" transform="translate(0.0249023 0.0249023)"/>
</clipPath>
</defs>
</svg>
