<svg width="20" height="20" viewBox="0 0 20 20" fill="none" xmlns="http://www.w3.org/2000/svg">
<g clip-path="url(#clip0)">
<path d="M19.9219 6.81512L16.1562 0.292738C15.9943 0.0121909 15.6356 -0.0831998 15.3558 0.0782845L13.1817 1.33352C12.9014 1.49532 12.8054 1.85364 12.9673 2.13391L13.0135 2.21399L2.10902 9.90309C1.86137 10.0777 1.78773 10.4124 1.93926 10.6749L1.96012 10.7111L0.293553 11.6733C0.013319 11.8351 -0.0827357 12.1934 0.0791001 12.4737L1.33433 14.648C1.49527 14.9268 1.85312 15.025 2.13472 14.8624L3.80125 13.9003L3.82207 13.9363C3.97457 14.2005 4.30199 14.3016 4.57539 14.1752L7.9434 12.618C8.10488 12.8609 8.30832 13.0736 8.54308 13.2459L6.31363 19.2084C6.20031 19.5116 6.35414 19.8491 6.65722 19.9625C6.96035 20.0759 7.29793 19.922 7.41129 19.6189L9.62625 13.6952C9.74832 13.7139 9.87324 13.7238 10.0005 13.7238C10.1277 13.7238 10.2527 13.7141 10.3748 13.6954L12.5896 19.6189C12.7029 19.922 13.0404 20.0759 13.3437 19.9625C13.6468 19.8492 13.8006 19.5116 13.6873 19.2084L11.4579 13.246C12.0705 12.7963 12.4693 12.0715 12.4693 11.255C12.4693 11.0175 12.4349 10.7881 12.372 10.5707L16.6867 8.57625L16.7329 8.65629C16.8936 8.93461 17.2512 9.03371 17.5333 8.87075L19.7074 7.61551C19.9877 7.45371 20.0837 7.09539 19.9219 6.81512ZM2.05625 13.5546L1.38691 12.3952L2.54609 11.7259L3.21543 12.8853L2.05625 13.5546ZM10.0005 12.5518C9.28535 12.5518 8.70359 11.97 8.70359 11.255C8.70359 10.5399 9.28539 9.95813 10.0005 9.95813C10.7155 9.95813 11.2973 10.5399 11.2973 11.255C11.2973 11.9701 10.7156 12.5518 10.0005 12.5518ZM11.7845 9.55117C11.3346 9.08039 10.7014 8.78625 10.0005 8.78625C8.63918 8.78625 7.53172 9.89375 7.53172 11.255C7.53172 11.3415 7.53629 11.4269 7.545 11.5111L4.56937 12.8869L3.22168 10.5524L13.6019 3.23301L16.0984 7.55711L11.7845 9.55117ZM17.4548 7.56289L14.2751 2.05539L15.4343 1.3861L18.614 6.8936L17.4548 7.56289Z" fill="#EFEDE1"/>
</g>
<defs>
<clipPath id="clip0">
<rect width="20" height="20" fill="white"/>
</clipPath>
</defs>
</svg>
