<svg width="77" height="77" viewBox="0 0 77 77" fill="none" xmlns="http://www.w3.org/2000/svg">
<g clip-path="url(#clip0)">
<path d="M77 15.4849C72.1564 15.7081 72.2621 15.6899 71.7146 15.7357L74.5832 7.54356C74.5832 7.54356 65.6291 10.8375 63.3591 11.4267C57.3975 6.06844 48.5362 5.83169 42.201 9.7254C37.0131 12.9147 34.2285 18.3917 35.1573 24.7933C25.0606 23.3922 16.5535 18.6061 9.83707 10.5379L7.71281 7.98651L6.12548 10.9015C4.11929 14.5849 3.45311 18.7964 4.24912 22.76C4.57575 24.3861 5.1309 25.937 5.89989 27.3893L4.07758 26.6831L3.8614 29.7279C3.64227 32.8209 4.6721 36.4315 6.6166 39.3853C7.16412 40.2171 7.86907 41.1306 8.7626 42.0318L7.8209 41.8873L8.96998 45.3762C10.4803 49.9602 13.6174 53.5067 17.6885 55.4782C13.6227 57.2036 10.3382 58.3045 4.93939 60.0804L0 61.7042L4.56224 64.1985C6.30172 65.1496 12.4483 68.3261 18.5215 69.2789C32.0215 71.3961 47.2209 69.6719 57.4533 60.4564C66.072 52.6942 68.9 41.6529 68.3126 30.1627C68.2239 28.4232 68.7003 26.763 69.6544 25.4888C71.5654 22.9375 76.9882 15.5019 77 15.4849ZM66.0467 22.7865C64.4623 24.9019 63.6687 27.6037 63.8109 30.393C64.4036 41.983 61.2501 50.9712 54.4373 57.1067C46.4789 64.2743 33.6423 67.0877 19.22 64.8254C16.6082 64.4159 13.9088 63.4989 11.6747 62.583C16.2011 61.0256 19.6965 59.6375 25.3414 56.9657L33.2216 53.2359L24.5213 52.679C20.3538 52.4123 16.8837 50.3926 14.7506 47.1133C15.8832 47.0475 16.9753 46.8643 18.0627 46.5611L26.3607 44.25L17.9934 42.201C13.9276 41.2052 11.61 38.7725 10.3817 36.9067C9.57506 35.6807 9.04811 34.4247 8.73205 33.2668C9.57095 33.4918 10.5491 33.6522 12.1264 33.8085L19.8709 34.5745L13.7349 29.7879C9.31364 26.3395 7.54185 21.1586 8.84074 16.1781C22.6391 30.4899 38.8401 29.4142 40.4709 29.7926C40.112 26.306 40.1026 26.2977 40.0086 25.9658C37.9202 18.5832 42.4971 14.8346 44.5614 13.5656C48.8734 10.9156 55.718 10.5161 60.4588 14.8822C61.4827 15.8244 62.8674 16.1951 64.1633 15.8732C65.3265 15.5842 66.2811 15.2781 67.2158 14.945L65.2701 20.5012L67.7539 20.503C67.2851 21.1316 66.7229 21.8841 66.0467 22.7865Z" fill="black"/>
</g>
<defs>
<clipPath id="clip0">
<rect width="77" height="77" fill="white"/>
</clipPath>
</defs>
</svg>
