<svg width="792" height="516" viewBox="0 0 792 516" fill="none" xmlns="http://www.w3.org/2000/svg">
<g opacity="0.7">
<path opacity="0.7" d="M569.943 232.26C570.022 215.934 564.334 199.839 553.369 185.356C548.163 178.555 543.415 174.327 539.72 171.734C538.327 170.719 536.507 170.027 534.514 169.757C532.522 169.487 530.456 169.651 528.606 170.227C527.127 170.585 525.791 171.177 524.706 171.955C519.763 175.473 515.298 180.123 511.398 185.075C499.862 199.896 493.875 216.457 493.976 233.265V243.356H484.558V126.097C484.558 101.519 476.553 77.2703 460.876 55.7415C453.447 45.55 446.671 39.218 441.455 35.325C440.192 34.3354 438.635 33.5425 436.89 32.9993C435.145 32.456 433.251 32.175 431.335 32.175C429.42 32.175 427.526 32.456 425.781 32.9993C424.035 33.5425 422.479 34.3354 421.215 35.325C414.157 40.5983 407.79 47.5669 402.223 54.9777C385.737 76.9486 377.362 101.881 377.362 127.189V243.356H369.222V232.783C369.323 215.974 363.335 199.413 351.799 184.592C347.9 179.647 343.434 174.997 338.491 171.473C337.069 170.443 335.206 169.75 333.174 169.495C331.141 169.24 329.043 169.435 327.182 170.052L327.523 170.18C326.329 170.542 325.25 171.061 324.345 171.707C320.689 174.3 315.941 178.528 310.696 185.329C299.73 199.812 294.043 215.907 294.122 232.233V407.545H323.175L320.006 421.958V465.049H343.756V421.958L340.587 407.545H369.222V247.892H377.362V406.828H400.566L397.232 421.952V465.049H420.991V421.958L417.657 406.835H448.923L445.589 421.958V465.049H469.349V421.958L466.014 406.835H484.538V247.892H493.956V407.787H501.59V407.545H526.831L523.663 421.958V465.049H547.422V421.958L544.254 407.545H569.943V232.26Z" fill="url(#paint0_linear)"/>
</g>
<path d="M348.484 413.556H325.992L330.009 394.788H344.468L348.484 413.556Z" fill="#535461"/>
<g opacity="0.1">
<path opacity="0.1" d="M328.888 402.239H345.589L344.468 396.992H330.009L328.888 402.239Z" fill="black"/>
</g>
<path d="M541.29 413.556H518.798L522.814 394.788H537.273L541.29 413.556Z" fill="#535461"/>
<g opacity="0.1">
<path opacity="0.1" d="M521.693 402.239H538.394L537.273 396.992H522.814L521.693 402.239Z" fill="black"/>
</g>
<path d="M421.596 413.556H399.094L403.111 394.788H417.579L421.596 413.556Z" fill="#535461"/>
<g opacity="0.1">
<path opacity="0.1" d="M401.989 402.239H418.7L417.579 396.992H403.111L401.989 402.239Z" fill="black"/>
</g>
<path d="M467.379 413.556H444.887L448.904 394.788H463.362L467.379 413.556Z" fill="#535461"/>
<g opacity="0.1">
<path opacity="0.1" d="M447.783 402.239H464.493L463.362 396.992H448.904L447.783 402.239Z" fill="black"/>
</g>
<path d="M509.155 239.637H348.484V244.053H509.155V239.637Z" fill="#535461"/>
<path d="M533.997 169.865C533.148 169.221 532.112 168.706 530.956 168.353C529.8 168.001 528.549 167.819 527.285 167.819C526.02 167.819 524.769 168.001 523.613 168.353C522.457 168.706 521.421 169.221 520.572 169.865C515.892 173.289 511.671 177.818 507.976 182.636C497.042 197.124 491.384 213.219 491.49 229.54V399.525H562.592V228.836C562.682 212.963 557.299 197.3 546.886 183.132C541.953 176.512 537.458 172.391 533.997 169.865Z" fill="#E0E0E0"/>
<path d="M330.107 169.865C330.956 169.221 331.992 168.706 333.148 168.353C334.304 168.001 335.555 167.819 336.819 167.819C338.084 167.819 339.335 168.001 340.491 168.353C341.647 168.706 342.683 169.221 343.532 169.865C348.211 173.289 352.433 177.818 356.128 182.636C367.062 197.124 372.72 213.219 372.614 229.54V399.525H301.492V228.836C301.403 212.963 306.785 197.3 317.198 183.132C322.122 176.512 326.616 172.391 330.107 169.865Z" fill="#E0E0E0"/>
<path d="M301.892 232.461L318.758 232.515V246.813H301.892V232.461Z" fill="#535461"/>
<path d="M355.719 232.461L372.585 232.515V246.813H355.719V232.461Z" fill="#535461"/>
<path d="M491.48 232.461L508.356 232.515V246.813H491.48V232.461Z" fill="#535461"/>
<path d="M545.306 232.461L562.183 232.515V246.813H545.306V232.461Z" fill="#535461"/>
<g opacity="0.1">
<path opacity="0.1" d="M356.099 182.415C352.414 177.597 348.182 173.068 343.503 169.644C342.18 168.64 340.416 167.961 338.48 167.711C336.543 167.46 334.541 167.652 332.778 168.257C333.794 168.605 334.712 169.075 335.488 169.644C340.168 173.068 344.39 177.597 348.085 182.415C359.019 196.903 364.676 212.998 364.571 229.319V399.29H372.605V229.339C372.709 213.01 367.044 196.908 356.099 182.415Z" fill="black"/>
</g>
<g opacity="0.1">
<path opacity="0.1" d="M514.371 182.884C518.057 178.066 522.288 173.537 526.968 170.113C527.844 169.465 528.902 168.945 530.078 168.585C528.34 168.062 526.407 167.928 524.552 168.202C522.697 168.476 521.015 169.145 519.743 170.113C515.064 173.537 510.842 178.066 507.147 182.884C496.213 197.372 490.556 213.467 490.661 229.787V399.759H497.895V229.814C497.78 213.485 503.434 197.38 514.371 182.884Z" fill="black"/>
</g>
<path d="M348.484 413.556H325.992V455.514H348.484V413.556Z" fill="url(#paint1_linear)"/>
<path d="M421.586 413.556H399.094V455.514H421.586V413.556Z" fill="url(#paint2_linear)"/>
<path d="M467.379 413.556H444.887V455.514H467.379V413.556Z" fill="url(#paint3_linear)"/>
<path d="M541.29 413.556H518.798V455.514H541.29V413.556Z" fill="url(#paint4_linear)"/>
<path d="M440.958 36.5916C439.783 35.6317 438.317 34.8601 436.662 34.3308C435.007 33.8014 433.204 33.5271 431.379 33.5271C429.554 33.5271 427.751 33.8014 426.096 34.3308C424.442 34.8601 422.975 35.6317 421.8 36.5916C415.122 41.7242 409.126 48.5118 403.822 55.735C388.223 77.1364 380.287 101.426 380.287 126.057V398.828H481.769V124.958C481.769 101.024 474.194 77.3843 459.346 56.472C452.316 46.5485 445.901 40.3841 440.958 36.5916Z" fill="#EEEEEE"/>
<path d="M446.077 66.8911H414.576C408.653 66.8911 403.852 70.191 403.852 74.2617V76.1981C403.852 80.2688 408.653 83.5687 414.576 83.5687H446.077C451.999 83.5687 456.801 80.2688 456.801 76.1981V74.2617C456.801 70.191 451.999 66.8911 446.077 66.8911Z" fill="#536DFE"/>
<g opacity="0.7">
<path opacity="0.7" d="M667.438 450.931C664.108 437.132 653.334 424.702 637.263 416.118C621.193 407.535 601.007 403.429 580.728 404.618C560.449 405.807 541.566 412.205 527.844 422.536C514.123 432.866 506.569 446.371 506.689 460.359C506.689 460.634 506.689 460.902 506.689 461.176C503.696 461.488 500.733 461.924 497.817 462.483C494.082 452.261 485.815 443.09 474.161 436.24C462.507 429.39 448.043 425.199 432.77 424.249C417.497 423.299 402.173 425.636 388.918 430.936C375.664 436.236 365.135 444.238 358.79 453.833C352.25 452.099 345.381 451.02 338.394 450.63C337.28 446.282 335.411 442.041 332.827 437.999C331.614 425.246 323.45 413.275 309.962 404.476C296.475 395.676 278.656 390.695 260.061 390.526C241.466 390.357 223.462 395.012 209.641 403.563C195.819 412.114 187.197 423.932 185.493 436.659C181.665 442.231 179.22 448.203 178.259 454.329C161.335 459.168 147.628 468.153 139.795 479.542C131.961 490.931 130.558 503.914 135.859 515.973H728.216C731.304 508.939 732.136 501.529 730.655 494.252C729.175 486.976 725.417 480.007 719.64 473.825C713.863 467.643 706.205 462.395 697.193 458.442C688.181 454.49 678.03 451.928 667.438 450.931Z" fill="url(#paint5_linear)"/>
</g>
<path d="M265.877 490.598C305.093 490.598 336.883 468.75 336.883 441.798C336.883 414.847 305.093 392.999 265.877 392.999C226.662 392.999 194.872 414.847 194.872 441.798C194.872 468.75 226.662 490.598 265.877 490.598Z" fill="url(#paint6_linear)"/>
<path d="M265.526 513.534C308.468 513.534 343.278 489.609 343.278 460.097C343.278 430.585 308.468 406.661 265.526 406.661C222.585 406.661 187.775 430.585 187.775 460.097C187.775 489.609 222.585 513.534 265.526 513.534Z" fill="url(#paint7_linear)"/>
<path d="M581.506 513.534C624.447 513.534 659.258 489.609 659.258 460.097C659.258 430.585 624.447 406.661 581.506 406.661C538.565 406.661 503.754 430.585 503.754 460.097C503.754 489.609 538.565 513.534 581.506 513.534Z" fill="url(#paint8_linear)"/>
<path d="M577.597 513.534C616.812 513.534 648.602 491.686 648.602 464.734C648.602 437.783 616.812 415.935 577.597 415.935C538.382 415.935 506.591 437.783 506.591 464.734C506.591 491.686 538.382 513.534 577.597 513.534Z" fill="url(#paint9_linear)"/>
<path d="M497.359 474.008C497.37 481.725 494.714 489.333 489.608 496.207C484.503 503.08 477.094 509.021 467.993 513.541H384.704C374.846 508.644 366.982 502.089 361.867 494.505C356.751 486.92 354.556 478.56 355.49 470.225C356.423 461.89 360.456 453.86 367.201 446.903C373.945 439.946 383.176 434.296 394.009 430.495C404.842 426.693 416.914 424.866 429.068 425.191C441.223 425.515 453.052 427.978 463.424 432.345C473.796 436.713 482.362 442.837 488.302 450.132C494.242 457.427 497.357 465.648 497.349 474.008H497.359Z" fill="url(#paint10_linear)"/>
<path d="M585.416 509.145C585.416 510.606 585.321 512.051 585.133 513.481C585.14 513.5 585.14 513.521 585.133 513.541H443.688C443.493 512.094 443.395 510.626 443.395 509.152C443.383 497.475 449.47 486.182 460.549 477.328C471.628 468.475 486.963 462.648 503.764 460.908C507.275 460.545 510.821 460.362 514.371 460.359C516.185 460.359 517.988 460.406 519.773 460.493C532.499 461.162 544.729 464.174 555.177 469.213C565.624 474.253 573.904 481.133 579.147 489.131C579.439 489.573 579.722 490.022 579.985 490.471C583.571 496.388 585.416 502.735 585.416 509.145Z" fill="url(#paint11_linear)"/>
<path d="M719.617 499.383C719.625 504.177 718.6 508.946 716.575 513.534H580.668C577.382 506.03 576.757 498.095 578.845 490.391C578.962 489.969 579.079 489.54 579.215 489.124C582.636 478.214 591.394 468.439 604.028 461.427C616.663 454.415 632.411 450.591 648.651 450.59C650.883 450.59 653.077 450.657 655.251 450.804C656.226 450.858 657.201 450.938 658.176 451.025C675.194 452.617 690.797 458.393 702.093 467.284C713.39 476.175 719.616 487.579 719.617 499.383Z" fill="url(#paint12_linear)"/>
<path d="M283.436 513.541C283.67 513.032 283.875 512.522 284.08 512.007C287.312 503.698 287.294 494.95 284.028 486.648C280.762 478.345 274.363 470.783 265.48 464.726C256.596 458.669 245.542 454.331 233.436 452.152C221.331 449.974 208.602 450.031 196.539 452.318C193.715 452.851 190.943 453.509 188.242 454.288C171.981 458.938 158.811 467.572 151.285 478.515C143.759 489.459 142.413 501.934 147.509 513.521H283.436V513.541Z" fill="url(#paint13_linear)"/>
<g opacity="0.7">
<path opacity="0.7" d="M692.63 413.174C699.824 413.174 705.656 409.166 705.656 404.222C705.656 399.278 699.824 395.27 692.63 395.27C685.437 395.27 679.605 399.278 679.605 404.222C679.605 409.166 685.437 413.174 692.63 413.174Z" fill="url(#paint14_linear)"/>
</g>
<path d="M692.63 412.517C699.296 412.517 704.7 408.803 704.7 404.222C704.7 399.641 699.296 395.927 692.63 395.927C685.965 395.927 680.561 399.641 680.561 404.222C680.561 408.803 685.965 412.517 692.63 412.517Z" fill="url(#paint15_linear)"/>
<g opacity="0.7">
<path opacity="0.7" d="M752.278 500.361C760.123 500.361 766.483 495.99 766.483 490.598C766.483 485.206 760.123 480.835 752.278 480.835C744.432 480.835 738.073 485.206 738.073 490.598C738.073 495.99 744.432 500.361 752.278 500.361Z" fill="url(#paint16_linear)"/>
</g>
<path d="M752.278 499.872C759.73 499.872 765.771 495.72 765.771 490.599C765.771 485.477 759.73 481.325 752.278 481.325C744.826 481.325 738.784 485.477 738.784 490.599C738.784 495.72 744.826 499.872 752.278 499.872Z" fill="url(#paint17_linear)"/>
<g opacity="0.7">
<path opacity="0.7" d="M144.458 445.691C153.078 445.691 160.067 440.889 160.067 434.964C160.067 429.039 153.078 424.236 144.458 424.236C135.837 424.236 128.849 429.039 128.849 434.964C128.849 440.889 135.837 445.691 144.458 445.691Z" fill="url(#paint18_linear)"/>
</g>
<path d="M144.458 445.209C152.691 445.209 159.365 440.622 159.365 434.964C159.365 429.306 152.691 424.719 144.458 424.719C136.225 424.719 129.551 429.306 129.551 434.964C129.551 440.622 136.225 445.209 144.458 445.209Z" fill="url(#paint19_linear)"/>
<g opacity="0.4">
<path opacity="0.4" d="M732.496 11.7044C729.036 8.56229 724.701 5.92469 719.744 3.94523C714.056 1.69904 707.694 0.380893 701.148 0.0925054C694.602 -0.195882 688.047 0.5532 681.989 2.28195C675.931 4.01069 670.532 6.67288 666.208 10.0631C661.884 13.4533 658.752 17.4809 657.052 21.8351C655.352 26.1893 655.131 30.7536 656.405 35.176C657.678 39.5983 660.414 43.7604 664.399 47.3411C668.384 50.9217 673.514 53.8253 679.391 55.8276C685.268 57.8299 691.735 58.8774 698.295 58.8894C699.202 58.8894 700.108 58.8895 701.005 58.8291C708.723 58.4946 716.164 56.7296 722.539 53.7217C728.915 50.7138 733.985 46.5753 737.213 41.7458C740.44 36.9163 741.704 31.5762 740.87 26.2927C740.036 21.0091 737.136 15.9794 732.477 11.7379L732.496 11.7044Z" fill="url(#paint20_linear)"/>
</g>
<path opacity="0.2" d="M738.784 29.4287C738.785 36.5007 734.866 43.3074 727.825 48.4643C720.783 53.6211 711.148 56.7409 700.879 57.1889C700.03 57.2292 699.172 57.2493 698.314 57.2493C692.109 57.2467 685.987 56.2634 680.423 54.3754C674.858 52.4873 670 49.745 666.224 46.3606C662.448 42.9762 659.854 39.0403 658.645 34.8571C657.435 30.674 657.641 26.3556 659.248 22.236C660.854 18.1164 663.817 14.3059 667.908 11.099C671.999 7.89205 677.109 5.37472 682.841 3.74156C688.574 2.1084 694.776 1.40318 700.969 1.68041C707.161 1.95764 713.178 3.20989 718.554 5.34037C723.243 7.21175 727.343 9.70592 730.614 12.6774C735.928 17.4977 738.797 23.3814 738.784 29.4287Z" fill="#536DFE"/>
<path opacity="0.05" d="M688.351 11.7862C686.26 12.4061 684.242 13.1364 682.316 13.9706C681.029 14.461 679.925 15.1489 679.089 15.9807C678.68 16.3979 678.456 16.8873 678.442 17.39C678.428 17.8927 678.625 18.3875 679.011 18.8151C679.985 19.7397 681.935 19.8871 683.564 19.9474C685.06 20.1659 686.614 20.1073 688.066 19.7776C689.519 19.448 690.818 18.8591 691.831 18.0713L695.312 15.9003C696.521 15.1499 697.846 14.1113 697.32 13.0526C696.92 12.2419 695.594 11.8465 694.395 11.7125C691.404 11.3079 688.3 11.6829 685.689 12.7645" fill="#F55F44"/>
<path opacity="0.05" d="M673.814 41.8716C674.988 41.8716 675.939 41.2176 675.939 40.4109C675.939 39.6042 674.988 38.9502 673.814 38.9502C672.64 38.9502 671.689 39.6042 671.689 40.4109C671.689 41.2176 672.64 41.8716 673.814 41.8716Z" fill="#F55F44"/>
<path opacity="0.05" d="M717.131 36.5045C721.444 36.5045 724.94 34.1016 724.94 31.1374C724.94 28.1732 721.444 25.7703 717.131 25.7703C712.818 25.7703 709.322 28.1732 709.322 31.1374C709.322 34.1016 712.818 36.5045 717.131 36.5045Z" fill="#F55F44"/>
<path opacity="0.05" d="M730.624 12.6706C730.593 14.073 729.977 15.4398 728.849 16.6085C727.721 17.7773 726.128 18.6988 724.26 19.2635C722.392 19.8282 720.327 20.0125 718.311 19.7942C716.295 19.576 714.413 18.9646 712.888 18.0326C711.363 17.1005 710.26 15.8872 709.709 14.5367C709.158 13.1862 709.183 11.7554 709.781 10.4144C710.378 9.07336 711.524 7.87852 713.081 6.97189C714.638 6.06526 716.541 5.48499 718.564 5.30005C723.257 7.18127 727.357 9.68702 730.624 12.6706Z" fill="#F55F44"/>
<path opacity="0.05" d="M731.404 45.4497C727.923 48.8545 723.371 51.6774 718.087 53.7095C712.803 55.7416 706.922 56.9308 700.879 57.189C700.83 56.8071 700.801 56.4185 700.801 56.0299C700.802 53.5884 701.79 51.1952 703.654 49.1171C705.519 47.039 708.187 45.3576 711.36 44.2605C714.533 43.1634 718.088 42.6936 721.627 42.9036C725.166 43.1136 728.551 43.9951 731.404 45.4497Z" fill="#F55F44"/>
<path opacity="0.25" d="M704.7 234.397C707.446 234.397 709.673 232.867 709.673 230.98C709.673 229.093 707.446 227.563 704.7 227.563C701.954 227.563 699.728 229.093 699.728 230.98C699.728 232.867 701.954 234.397 704.7 234.397Z" fill="#535461"/>
<path opacity="0.25" d="M41.7374 324.184C44.4835 324.184 46.7096 322.654 46.7096 320.767C46.7096 318.88 44.4835 317.35 41.7374 317.35C38.9913 317.35 36.7652 318.88 36.7652 320.767C36.7652 322.654 38.9913 324.184 41.7374 324.184Z" fill="#535461"/>
<path opacity="0.25" d="M281.496 181.691C284.242 181.691 286.468 180.161 286.468 178.274C286.468 176.387 284.242 174.857 281.496 174.857C278.75 174.857 276.524 176.387 276.524 178.274C276.524 180.161 278.75 181.691 281.496 181.691Z" fill="#535461"/>
<path opacity="0.25" d="M265.166 103.121C267.912 103.121 270.138 101.591 270.138 99.7036C270.138 97.8163 267.912 96.2864 265.166 96.2864C262.42 96.2864 260.193 97.8163 260.193 99.7036C260.193 101.591 262.42 103.121 265.166 103.121Z" fill="#535461"/>
<path opacity="0.25" d="M124.569 258.794C127.315 258.794 129.541 257.264 129.541 255.377C129.541 253.489 127.315 251.959 124.569 251.959C121.823 251.959 119.597 253.489 119.597 255.377C119.597 257.264 121.823 258.794 124.569 258.794Z" fill="#535461"/>
<path opacity="0.25" d="M586.478 95.4219H582.052V92.3799H580.248V95.4219H575.822V96.6615H580.248V99.7035H582.052V96.6615H586.478V95.4219Z" fill="#535461"/>
<path opacity="0.25" d="M779.615 242.311H775.189V239.275H773.385V242.311H768.969V243.557H773.385V246.592H775.189V243.557H779.615V242.311Z" fill="#535461"/>
<path opacity="0.25" d="M617.716 343.328H613.299V340.292H611.496V343.328H607.069V344.574H611.496V347.609H613.299V344.574H617.716V343.328Z" fill="#535461"/>
<path opacity="0.25" d="M164.698 134.948H160.271V131.913H158.468V134.948H154.041V136.188H158.468V139.23H160.271V136.188H164.698V134.948Z" fill="#535461"/>
<path opacity="0.25" d="M10.6562 174.481H6.2299V171.446H4.42625V174.481H0V175.721H4.42625V178.763H6.2299V175.721H10.6562V174.481Z" fill="#535461"/>
<path opacity="0.25" d="M225.758 298.923H221.332V295.881H219.528V298.923H215.112V300.163H219.528V303.205H221.332V300.163H225.758V298.923Z" fill="#535461"/>
<path d="M752.278 499.872C759.73 499.872 765.771 495.72 765.771 490.599C765.771 485.477 759.73 481.325 752.278 481.325C744.826 481.325 738.784 485.477 738.784 490.599C738.784 495.72 744.826 499.872 752.278 499.872Z" fill="url(#paint21_linear)"/>
<g opacity="0.4">
<path opacity="0.4" d="M262.221 233.392C260.574 231.895 258.509 230.637 256.147 229.694C253.439 228.61 250.403 227.97 247.276 227.823C244.149 227.677 241.015 228.027 238.117 228.848C235.22 229.668 232.636 230.937 230.567 232.555C228.498 234.173 226.999 236.097 226.187 238.177C225.375 240.258 225.272 242.439 225.885 244.551C226.499 246.663 227.812 248.65 229.723 250.357C231.635 252.064 234.093 253.446 236.907 254.394C239.721 255.342 242.815 255.832 245.949 255.826C246.378 255.826 246.817 255.826 247.236 255.826C250.91 255.664 254.452 254.822 257.486 253.389C260.52 251.956 262.933 249.986 264.469 247.687C266.006 245.387 266.608 242.845 266.212 240.33C265.816 237.814 264.437 235.419 262.221 233.399V233.392Z" fill="url(#paint22_linear)"/>
</g>
<path opacity="0.2" d="M265.214 241.835C265.214 245.203 263.347 248.445 259.993 250.901C256.639 253.357 252.05 254.842 247.158 255.055C246.759 255.055 246.349 255.055 245.94 255.055C242.985 255.053 240.07 254.584 237.421 253.684C234.772 252.785 232.459 251.479 230.661 249.867C228.864 248.255 227.629 246.381 227.054 244.389C226.478 242.397 226.577 240.34 227.342 238.379C228.107 236.417 229.518 234.603 231.466 233.076C233.414 231.548 235.846 230.35 238.576 229.572C241.306 228.794 244.259 228.458 247.208 228.589C250.156 228.721 253.022 229.316 255.582 230.33C257.813 231.221 259.765 232.408 261.324 233.821C263.865 236.127 265.232 238.943 265.214 241.835Z" fill="#536DFE"/>
<path opacity="0.1" d="M241.192 233.432C240.179 233.725 239.201 234.073 238.267 234.471C237.655 234.701 237.128 235.024 236.726 235.416C236.541 235.616 236.442 235.848 236.442 236.086C236.442 236.323 236.541 236.556 236.726 236.756C237.01 236.947 237.35 237.094 237.724 237.186C238.097 237.279 238.495 237.315 238.891 237.292C239.598 237.391 240.33 237.361 241.014 237.205C241.699 237.049 242.311 236.771 242.791 236.401L244.448 235.369C245.023 235.007 245.657 234.518 245.423 234.029C245.292 233.844 245.094 233.685 244.849 233.568C244.603 233.45 244.317 233.378 244.019 233.359C242.595 233.167 241.118 233.346 239.876 233.861" fill="#F55F44"/>
<path opacity="0.1" d="M234.27 247.758C234.83 247.758 235.284 247.446 235.284 247.061C235.284 246.676 234.83 246.365 234.27 246.365C233.71 246.365 233.256 246.676 233.256 247.061C233.256 247.446 233.71 247.758 234.27 247.758Z" fill="#F55F44"/>
<path opacity="0.1" d="M254.899 245.205C256.956 245.205 258.624 244.059 258.624 242.646C258.624 241.232 256.956 240.086 254.899 240.086C252.843 240.086 251.175 241.232 251.175 242.646C251.175 244.059 252.843 245.205 254.899 245.205Z" fill="#F55F44"/>
<path opacity="0.1" d="M261.324 233.881C261.312 234.549 261.021 235.2 260.486 235.757C259.951 236.314 259.194 236.754 258.306 237.024C257.418 237.294 256.435 237.383 255.476 237.28C254.516 237.177 253.619 236.888 252.893 236.445C252.166 236.002 251.639 235.425 251.376 234.783C251.112 234.14 251.123 233.459 251.406 232.821C251.689 232.182 252.233 231.613 252.974 231.181C253.714 230.749 254.619 230.472 255.582 230.384C257.814 231.277 259.766 232.466 261.324 233.881Z" fill="#F55F44"/>
<path opacity="0.1" d="M261.705 249.467C260.047 251.089 257.88 252.434 255.364 253.403C252.848 254.371 250.047 254.938 247.168 255.062C247.168 254.881 247.168 254.693 247.168 254.506C247.163 253.338 247.632 252.191 248.522 251.196C249.413 250.201 250.69 249.397 252.209 248.873C253.729 248.35 255.431 248.128 257.124 248.233C258.817 248.338 260.434 248.765 261.792 249.467H261.705Z" fill="#F55F44"/>
<g opacity="0.1">
<path opacity="0.1" d="M481.223 135.384H380.804V138.064H481.223V135.384Z" fill="black"/>
</g>
<defs>
<linearGradient id="paint0_linear" x1="432.037" y1="465.049" x2="432.037" y2="32.1959" gradientUnits="userSpaceOnUse">
<stop stop-color="#808080" stop-opacity="0.25"/>
<stop offset="0.54" stop-color="#808080" stop-opacity="0.12"/>
<stop offset="1" stop-color="#808080" stop-opacity="0.1"/>
</linearGradient>
<linearGradient id="paint1_linear" x1="337.234" y1="413.556" x2="337.234" y2="455.521" gradientUnits="userSpaceOnUse">
<stop stop-color="#E0E0E0"/>
<stop offset="0.31" stop-color="#FCCC63"/>
<stop offset="0.77" stop-color="#F55F44"/>
</linearGradient>
<linearGradient id="paint2_linear" x1="9865.75" y1="26310.4" x2="9865.75" y2="28938.3" gradientUnits="userSpaceOnUse">
<stop stop-color="#E0E0E0"/>
<stop offset="0.31" stop-color="#FCCC63"/>
<stop offset="0.77" stop-color="#F55F44"/>
</linearGradient>
<linearGradient id="paint3_linear" x1="10968" y1="26310.4" x2="10968" y2="28938.3" gradientUnits="userSpaceOnUse">
<stop stop-color="#E0E0E0"/>
<stop offset="0.31" stop-color="#FCCC63"/>
<stop offset="0.77" stop-color="#F55F44"/>
</linearGradient>
<linearGradient id="paint4_linear" x1="12747" y1="26310.4" x2="12747" y2="28938.3" gradientUnits="userSpaceOnUse">
<stop stop-color="#E0E0E0"/>
<stop offset="0.31" stop-color="#FCCC63"/>
<stop offset="0.77" stop-color="#F55F44"/>
</linearGradient>
<linearGradient id="paint5_linear" x1="347691" y1="105149" x2="347691" y2="81657" gradientUnits="userSpaceOnUse">
<stop stop-color="#808080" stop-opacity="0.25"/>
<stop offset="0.54" stop-color="#808080" stop-opacity="0.12"/>
<stop offset="1" stop-color="#808080" stop-opacity="0.1"/>
</linearGradient>
<linearGradient id="paint6_linear" x1="265.877" y1="392.999" x2="265.877" y2="490.598" gradientUnits="userSpaceOnUse">
<stop stop-color="#F2F2F2"/>
<stop offset="0.31" stop-color="#E6E6E6"/>
<stop offset="0.77" stop-color="#CCCCCC"/>
</linearGradient>
<linearGradient id="paint7_linear" x1="42539.2" y1="65269.1" x2="42539.2" y2="82315.3" gradientUnits="userSpaceOnUse">
<stop stop-color="#F2F2F2"/>
<stop offset="0.31" stop-color="#E6E6E6"/>
<stop offset="0.77" stop-color="#CCCCCC"/>
</linearGradient>
<linearGradient id="paint8_linear" x1="93254" y1="65269.1" x2="93254" y2="82315.3" gradientUnits="userSpaceOnUse">
<stop stop-color="#F2F2F2"/>
<stop offset="0.31" stop-color="#E6E6E6"/>
<stop offset="0.77" stop-color="#CCCCCC"/>
</linearGradient>
<linearGradient id="paint9_linear" x1="84639.4" y1="61001" x2="84639.4" y2="75217.3" gradientUnits="userSpaceOnUse">
<stop stop-color="#F2F2F2"/>
<stop offset="0.31" stop-color="#E6E6E6"/>
<stop offset="0.77" stop-color="#CCCCCC"/>
</linearGradient>
<linearGradient id="paint10_linear" x1="82010.8" y1="62255.4" x2="82010.8" y2="73907.5" gradientUnits="userSpaceOnUse">
<stop stop-color="#F2F2F2"/>
<stop offset="0.31" stop-color="#E6E6E6"/>
<stop offset="0.77" stop-color="#CCCCCC"/>
</linearGradient>
<linearGradient id="paint11_linear" x1="94891.1" y1="40452.1" x2="94891.1" y2="44674.3" gradientUnits="userSpaceOnUse">
<stop stop-color="#F2F2F2"/>
<stop offset="0.31" stop-color="#E6E6E6"/>
<stop offset="0.77" stop-color="#CCCCCC"/>
</linearGradient>
<linearGradient id="paint12_linear" x1="114544" y1="46866.6" x2="114544" y2="52780.8" gradientUnits="userSpaceOnUse">
<stop stop-color="#F2F2F2"/>
<stop offset="0.31" stop-color="#E6E6E6"/>
<stop offset="0.77" stop-color="#CCCCCC"/>
</linearGradient>
<linearGradient id="paint13_linear" x1="51046.4" y1="46893.7" x2="51046.4" y2="52811.4" gradientUnits="userSpaceOnUse">
<stop stop-color="#F2F2F2"/>
<stop offset="0.31" stop-color="#E6E6E6"/>
<stop offset="0.77" stop-color="#CCCCCC"/>
</linearGradient>
<linearGradient id="paint14_linear" x1="19186.6" y1="11435.3" x2="19186.6" y2="10956.9" gradientUnits="userSpaceOnUse">
<stop stop-color="#808080" stop-opacity="0.25"/>
<stop offset="0.54" stop-color="#808080" stop-opacity="0.12"/>
<stop offset="1" stop-color="#808080" stop-opacity="0.1"/>
</linearGradient>
<linearGradient id="paint15_linear" x1="17830.1" y1="10199.1" x2="17830.1" y2="10609.8" gradientUnits="userSpaceOnUse">
<stop stop-color="#F2F2F2"/>
<stop offset="0.31" stop-color="#E6E6E6"/>
<stop offset="0.77" stop-color="#CCCCCC"/>
</linearGradient>
<linearGradient id="paint16_linear" x1="22659.4" y1="15061.4" x2="22659.4" y2="14492.6" gradientUnits="userSpaceOnUse">
<stop stop-color="#808080" stop-opacity="0.25"/>
<stop offset="0.54" stop-color="#808080" stop-opacity="0.12"/>
<stop offset="1" stop-color="#808080" stop-opacity="0.1"/>
</linearGradient>
<linearGradient id="paint17_linear" x1="752.278" y1="481.325" x2="752.278" y2="499.872" gradientUnits="userSpaceOnUse">
<stop stop-color="#F2F2F2"/>
<stop offset="0.31" stop-color="#E0E0E0"/>
<stop offset="0.77" stop-color="#B3B3B3"/>
</linearGradient>
<linearGradient id="paint18_linear" x1="4754.38" y1="14695.3" x2="4754.38" y2="14008.3" gradientUnits="userSpaceOnUse">
<stop stop-color="#808080" stop-opacity="0.25"/>
<stop offset="0.54" stop-color="#808080" stop-opacity="0.12"/>
<stop offset="1" stop-color="#808080" stop-opacity="0.1"/>
</linearGradient>
<linearGradient id="paint19_linear" x1="4547.06" y1="13412.6" x2="4547.06" y2="14039.4" gradientUnits="userSpaceOnUse">
<stop stop-color="#F2F2F2"/>
<stop offset="0.31" stop-color="#E6E6E6"/>
<stop offset="0.77" stop-color="#CCCCCC"/>
</linearGradient>
<linearGradient id="paint20_linear" x1="73670.6" y1="8992.83" x2="73670.6" y2="3822.81" gradientUnits="userSpaceOnUse">
<stop stop-color="#808080" stop-opacity="0.25"/>
<stop offset="0.54" stop-color="#808080" stop-opacity="0.12"/>
<stop offset="1" stop-color="#808080" stop-opacity="0.1"/>
</linearGradient>
<linearGradient id="paint21_linear" x1="21561.8" y1="13804.4" x2="21561.8" y2="14317.8" gradientUnits="userSpaceOnUse">
<stop stop-color="#F2F2F2"/>
<stop offset="0.31" stop-color="#E6E6E6"/>
<stop offset="0.77" stop-color="#CCCCCC"/>
</linearGradient>
<linearGradient id="paint22_linear" x1="16139.3" y1="12753.5" x2="16139.3" y2="11580.5" gradientUnits="userSpaceOnUse">
<stop stop-color="#808080" stop-opacity="0.25"/>
<stop offset="0.54" stop-color="#808080" stop-opacity="0.12"/>
<stop offset="1" stop-color="#808080" stop-opacity="0.1"/>
</linearGradient>
</defs>
</svg>
