<svg width="560" height="390" viewBox="0 0 560 390" fill="none" xmlns="http://www.w3.org/2000/svg">
<g clip-path="url(#clip0)">
<path d="M286.003 389.173C302.846 389.173 316.5 375.68 316.5 359.035C316.5 342.391 302.846 328.897 286.003 328.897C269.16 328.897 255.506 342.391 255.506 359.035C255.506 375.68 269.16 389.173 286.003 389.173Z" fill="#536DFE"/>
<path d="M468.194 387.48C485.255 382.417 503.394 377.136 516.925 365.099C529.016 354.342 537.179 337.916 532.17 321.784C527.171 305.685 512.198 294.951 496.739 289.612C487.971 286.584 478.798 284.904 469.629 283.584C459.661 282.149 449.649 280.974 439.642 279.843C399.122 275.263 358.45 272.465 317.626 271.449C297.481 270.948 277.341 270.96 257.194 271.249C239.201 271.507 220.251 271.501 203.559 263.944C190.579 258.067 178.799 247.375 175.182 233.325C171.007 217.106 178.708 200.59 189.754 188.844C195.577 182.652 202.382 177.441 209.402 172.65C217.018 167.451 224.9 162.621 232.952 158.113C248.811 149.237 265.391 141.683 282.52 135.53C290.97 132.493 299.546 129.874 308.196 127.457C315.5 125.416 322.826 123.373 329.886 120.592C343.532 115.218 356.511 106.113 359.981 91.1873C363.27 77.0412 357.725 61.6844 348.004 51.1755C336.759 39.0174 319.802 33.6877 303.545 32.8253C285.295 31.8572 267.464 36.3711 250.31 42.0999C232.014 48.21 214.113 55.2356 195.43 60.1848C176.904 65.0877 158.019 68.5568 138.947 70.5605C129.611 71.5429 119.993 72.6523 110.601 71.9002C102.73 71.2698 94.899 68.9822 89.0981 63.4618C84.1241 58.7283 81.161 52.2229 82.1797 45.3577C82.3647 44.1108 84.2815 44.6409 84.0976 45.8803C82.8576 54.2371 88.6058 61.9377 95.6892 65.8823C103.876 70.4412 113.838 70.4474 122.952 69.926C142.715 68.7464 162.343 65.9423 181.635 61.5426C200.591 57.264 218.87 51.1474 237.129 44.6135C254.47 38.408 272.198 32.3514 290.724 31.0074C306.798 29.8411 323.708 32.1554 337.712 40.457C350.019 47.753 359.069 59.9204 361.953 73.8828C364.771 87.5265 360.868 101.259 350.417 110.78C339.597 120.638 324.76 124.853 310.933 128.735C293.396 133.658 276.234 139.413 259.623 146.885C242.786 154.438 226.638 163.409 211.359 173.7C196.61 183.66 182.055 196.192 177.39 213.961C175.217 222.238 175.618 231.017 179.254 238.835C182.487 245.786 187.811 251.633 194.013 256.143C208.811 266.904 227.462 269.114 245.337 269.333C265.413 269.58 285.489 268.911 305.572 269.236C346.499 269.9 387.342 272.362 428.102 276.622C438.315 277.69 448.516 278.871 458.703 280.165C467.867 281.328 477.061 282.484 486.07 284.551C502.089 288.225 517.677 295.29 527.633 308.712C532.052 314.53 534.79 321.424 535.554 328.66C536.251 336.21 534.381 343.774 530.926 350.491C523.281 365.357 508.959 374.812 493.751 381.025C485.605 384.352 477.156 386.873 468.723 389.376C467.494 389.74 466.969 387.844 468.194 387.48L468.194 387.48Z" fill="#F2F2F2"/>
<path d="M83.464 61.2589C92.2516 61.2589 99.3754 54.219 99.3754 45.5347C99.3754 36.8505 92.2516 29.8105 83.464 29.8105C74.6763 29.8105 67.5526 36.8505 67.5526 45.5347C67.5526 54.219 74.6763 61.2589 83.464 61.2589Z" fill="#F2F2F2"/>
<path d="M193.85 91.0692C202.637 91.0692 209.761 84.0293 209.761 75.345C209.761 66.6608 202.637 59.6208 193.85 59.6208C185.062 59.6208 177.938 66.6608 177.938 75.345C177.938 84.0293 185.062 91.0692 193.85 91.0692Z" fill="#F2F2F2"/>
<path d="M287.329 31.4484C296.117 31.4484 303.241 24.4084 303.241 15.7242C303.241 7.03996 296.117 0 287.329 0C278.542 0 271.418 7.03996 271.418 15.7242C271.418 24.4084 278.542 31.4484 287.329 31.4484Z" fill="#F2F2F2"/>
<path d="M345.671 98.2762C354.459 98.2762 361.583 91.2363 361.583 82.5521C361.583 73.8678 354.459 66.8279 345.671 66.8279C336.884 66.8279 329.76 73.8678 329.76 82.5521C329.76 91.2363 336.884 98.2762 345.671 98.2762Z" fill="#F2F2F2"/>
<path d="M266.777 175.587C275.565 175.587 282.688 168.547 282.688 159.863C282.688 151.178 275.565 144.138 266.777 144.138C257.989 144.138 250.866 151.178 250.866 159.863C250.866 168.547 257.989 175.587 266.777 175.587Z" fill="#F2F2F2"/>
<path d="M166.668 212.932C175.455 212.932 182.579 205.892 182.579 197.207C182.579 188.523 175.455 181.483 166.668 181.483C157.88 181.483 150.756 188.523 150.756 197.207C150.756 205.892 157.88 212.932 166.668 212.932Z" fill="#F2F2F2"/>
<path d="M272.744 271.242C281.531 271.242 288.655 264.202 288.655 255.518C288.655 246.834 281.531 239.794 272.744 239.794C263.956 239.794 256.832 246.834 256.832 255.518C256.832 264.202 263.956 271.242 272.744 271.242Z" fill="#F2F2F2"/>
<path d="M386.776 304.001C395.563 304.001 402.687 296.961 402.687 288.277C402.687 279.592 395.563 272.552 386.776 272.552C377.988 272.552 370.864 279.592 370.864 288.277C370.864 296.961 377.988 304.001 386.776 304.001Z" fill="#F2F2F2"/>
<path d="M520.034 296.794C528.822 296.794 535.946 289.754 535.946 281.07C535.946 272.385 528.822 265.345 520.034 265.345C511.246 265.345 504.123 272.385 504.123 281.07C504.123 289.754 511.246 296.794 520.034 296.794Z" fill="#F2F2F2"/>
<path d="M282.737 44.554C235.074 44.8867 196.048 83.1634 195.371 130.262C195.365 130.696 195.362 133.754 195.362 137.753C195.363 143.616 197.72 149.24 201.915 153.386C206.11 157.532 211.801 159.862 217.734 159.862H217.734C220.675 159.862 223.587 159.288 226.304 158.175C229.021 157.062 231.489 155.43 233.568 153.374C235.647 151.318 237.295 148.876 238.419 146.19C239.542 143.504 240.119 140.626 240.117 137.719C240.114 134.999 240.113 133.116 240.113 133C240.112 125.721 242.027 118.567 245.672 112.242C249.317 105.917 254.565 100.638 260.901 96.9252C267.236 93.2124 274.44 91.1933 281.805 91.0665C289.17 90.9398 296.441 92.7098 302.903 96.2023C309.365 99.6949 314.796 104.79 318.662 110.986C322.527 117.182 324.694 124.266 324.949 131.54C325.204 138.815 323.538 146.03 320.116 152.475C316.693 158.921 311.632 164.375 305.43 168.301L305.437 168.31C305.437 168.31 273.596 188.568 263.888 216.357L263.896 216.359C262.189 222.052 261.324 227.959 261.328 233.897C261.328 236.338 261.474 257.694 261.754 275.027C261.853 281.008 264.326 286.711 268.641 290.906C272.956 295.1 278.767 297.45 284.819 297.449H284.819C287.861 297.449 290.872 296.854 293.68 295.7C296.488 294.545 299.037 292.854 301.181 290.722C303.325 288.59 305.021 286.06 306.172 283.278C307.323 280.496 307.906 277.516 307.887 274.511C307.789 258.637 307.737 240.153 307.737 238.811C307.737 221.747 324.394 204.745 338.077 193.658C353.833 180.891 365.171 163.492 369.726 143.865C370.733 139.825 371.289 135.687 371.382 131.526C371.382 120.052 369.085 108.691 364.622 98.0974C360.159 87.5043 353.62 77.8886 345.38 69.8042C337.14 61.7199 327.363 55.3267 316.611 50.9931C305.86 46.6595 294.347 44.4711 282.737 44.554Z" fill="#536DFE"/>
<path d="M559.211 390H0.789371C0.580406 390 0.380212 389.917 0.232665 389.771C0.0851187 389.625 0.0022583 389.427 0.0022583 389.22C0.0022583 389.014 0.0851187 388.815 0.232665 388.669C0.380212 388.523 0.580406 388.441 0.789371 388.44H559.211C559.42 388.44 559.621 388.522 559.769 388.668C559.917 388.815 560 389.013 560 389.22C560 389.427 559.917 389.625 559.769 389.772C559.621 389.918 559.42 390 559.211 390Z" fill="#3F3D56"/>
<path d="M416.647 178.86C427.631 178.86 436.536 170.06 436.536 159.205C436.536 148.349 427.631 139.549 416.647 139.549C405.662 139.549 396.758 148.349 396.758 159.205C396.758 170.06 405.662 178.86 416.647 178.86Z" fill="#2F2E41"/>
<path d="M379.894 381.396H371.766L367.899 350.414H379.896L379.894 381.396Z" fill="#A0616A"/>
<path d="M365.96 379.101H381.635V388.854H356.09C356.09 387.573 356.346 386.305 356.842 385.122C357.338 383.938 358.065 382.863 358.981 381.957C359.898 381.052 360.986 380.333 362.183 379.843C363.381 379.353 364.664 379.101 365.96 379.101Z" fill="#2F2E41"/>
<path d="M442.876 381.396H434.749L430.882 350.414H442.878L442.876 381.396Z" fill="#A0616A"/>
<path d="M428.943 379.101H444.618V388.854H419.073C419.073 387.573 419.329 386.305 419.825 385.122C420.321 383.938 421.048 382.863 421.964 381.957C422.88 381.052 423.969 380.333 425.166 379.843C426.363 379.353 427.647 379.101 428.943 379.101Z" fill="#2F2E41"/>
<path d="M413.624 178.975C422.617 178.975 429.908 171.77 429.908 162.883C429.908 153.996 422.617 146.791 413.624 146.791C404.631 146.791 397.341 153.996 397.341 162.883C397.341 171.77 404.631 178.975 413.624 178.975Z" fill="#A0616A"/>
<path d="M423.33 230.887L430.616 214.344C432.385 210.463 432.892 206.135 432.067 201.958C431.242 197.78 429.125 193.958 426.008 191.02C425.368 190.395 424.688 189.81 423.973 189.271C420.378 186.491 415.947 184.976 411.383 184.966C408.314 184.978 405.284 185.644 402.499 186.918C402.26 187.023 402.028 187.135 401.789 187.246C401.332 187.462 400.881 187.698 400.444 187.941C397.59 189.56 395.161 191.82 393.353 194.537C391.545 197.255 390.408 200.355 390.035 203.586L386.819 230.212C386.011 232.302 357.158 307.778 367.249 365.401C367.356 366.016 367.66 366.582 368.115 367.014C368.571 367.447 369.155 367.724 369.781 367.806L380.011 369.181C380.758 369.282 381.516 369.1 382.132 368.671C382.748 368.242 383.177 367.598 383.332 366.869L400.497 286.014C400.604 285.511 400.878 285.059 401.276 284.729C401.674 284.398 402.172 284.21 402.691 284.192C403.21 284.175 403.72 284.33 404.14 284.633C404.559 284.936 404.864 285.369 405.005 285.863L429.257 370.891C429.43 371.509 429.803 372.054 430.319 372.442C430.835 372.83 431.466 373.04 432.114 373.04C432.308 373.039 432.501 373.022 432.691 372.988L445.188 370.61C445.914 370.475 446.564 370.078 447.009 369.495C447.455 368.912 447.663 368.186 447.595 367.458C445.758 347.22 435.999 245.845 423.33 230.887Z" fill="#2F2E41"/>
<path d="M350.343 176.275C350.23 177.231 350.331 178.201 350.638 179.115C350.945 180.029 351.451 180.865 352.121 181.565C352.79 182.265 353.607 182.811 354.514 183.165C355.42 183.519 356.394 183.673 357.367 183.615L366.469 205.23L373.354 195.145L363.655 176.164C363.448 174.555 362.651 173.078 361.415 172.011C360.179 170.944 358.59 170.363 356.949 170.376C355.308 170.39 353.73 170.998 352.512 172.085C351.294 173.172 350.523 174.663 350.343 176.275L350.343 176.275Z" fill="#A0616A"/>
<path d="M412.721 252.653C413.689 252.538 414.62 252.216 415.448 251.707C416.276 251.199 416.981 250.518 417.513 249.711C418.046 248.905 418.393 247.992 418.531 247.039C418.668 246.085 418.592 245.114 418.308 244.192L437.458 230.408L425.929 226.142L409.511 239.885C407.976 240.459 406.708 241.569 405.946 243.005C405.184 244.442 404.982 246.104 405.378 247.678C405.774 249.252 406.74 250.627 408.093 251.544C409.447 252.461 411.093 252.855 412.721 252.653Z" fill="#A0616A"/>
<path d="M381.503 219.641C380.769 219.64 380.036 219.569 379.316 219.428C377.574 219.1 375.941 218.354 374.559 217.256C373.178 216.157 372.092 214.739 371.395 213.128L358.643 197.762C358.374 197.437 358.178 197.059 358.068 196.653C357.958 196.247 357.938 195.823 358.007 195.408C358.077 194.994 358.236 194.599 358.472 194.25C358.709 193.901 359.019 193.606 359.38 193.385L368.452 187.835C368.787 187.63 369.16 187.493 369.549 187.431C369.938 187.369 370.336 187.384 370.719 187.475C371.102 187.566 371.463 187.73 371.781 187.96C372.099 188.189 372.369 188.479 372.573 188.812L381.561 203.444L398.772 190.874C400.143 190.164 401.726 189.964 403.233 190.313C404.739 190.661 406.069 191.533 406.979 192.77C407.889 194.007 408.318 195.526 408.188 197.05C408.058 198.574 407.377 200 406.271 201.069L389.092 216.555C387.073 218.533 384.345 219.642 381.503 219.641Z" fill="#2F2E41"/>
<path d="M428.011 242.751C427.988 242.751 427.964 242.751 427.941 242.75C427.522 242.74 427.111 242.643 426.733 242.466C426.355 242.289 426.018 242.035 425.746 241.721L417.68 232.422C417.405 232.106 417.202 231.735 417.083 231.335C416.964 230.934 416.932 230.514 416.99 230.101C417.047 229.687 417.193 229.291 417.417 228.938C417.641 228.584 417.939 228.282 418.29 228.05L433.394 218.1L419.711 201.843C418.915 200.532 418.623 198.982 418.888 197.475C419.154 195.969 419.959 194.607 421.156 193.638C422.354 192.67 423.864 192.16 425.41 192.201C426.957 192.242 428.438 192.831 429.581 193.862L446.211 209.922C447.519 211.103 448.518 212.581 449.122 214.228C449.726 215.875 449.916 217.643 449.676 219.379C449.437 221.114 448.775 222.767 447.746 224.194C446.718 225.621 445.355 226.78 443.774 227.572L430.182 241.825C429.903 242.117 429.566 242.35 429.193 242.509C428.82 242.668 428.417 242.751 428.011 242.751Z" fill="#2F2E41"/>
<path d="M409.484 208.486C409.355 208.486 409.225 208.478 409.097 208.462C408.535 208.394 408.005 208.169 407.569 207.812C407.133 207.456 406.809 206.983 406.637 206.451L400.576 188.087C400.424 187.623 400.447 187.12 400.642 186.671C400.836 186.222 401.188 185.859 401.633 185.647L401.829 185.555C402.008 185.471 402.184 185.388 402.364 185.309C405.191 184.013 408.267 183.338 411.383 183.328C415.427 183.336 419.382 184.51 422.761 186.707C423.214 187.005 423.53 187.466 423.642 187.993C423.754 188.519 423.652 189.068 423.358 189.52L411.988 207.123C411.721 207.541 411.352 207.886 410.914 208.124C410.476 208.362 409.984 208.487 409.484 208.486Z" fill="#E6E6E6"/>
<path d="M432.328 150.43C435.922 150.43 438.836 147.55 438.836 143.998C438.836 140.446 435.922 137.567 432.328 137.567C428.733 137.567 425.82 140.446 425.82 143.998C425.82 147.55 428.733 150.43 432.328 150.43Z" fill="#2F2E41"/>
<path d="M410.017 136.929C405.445 136.929 401.061 138.723 397.828 141.918C394.596 145.113 392.78 149.445 392.78 153.963V161.17H401.749L406.039 153.963L407.326 161.17H434.547L427.255 153.963C427.255 149.445 425.438 145.113 422.206 141.918C418.973 138.723 414.589 136.929 410.017 136.929Z" fill="#2F2E41"/>
<path d="M435.673 139.593C436.393 137.369 437.883 135.467 439.881 134.221C441.879 132.975 444.258 132.466 446.599 132.782C450.747 133.467 454.026 136.762 455.98 140.442C457.934 144.121 458.836 148.24 460.15 152.187C461.463 156.135 463.326 160.104 466.642 162.66C469.958 165.215 475.047 165.908 478.304 163.28C477.932 166.019 476.697 168.574 474.776 170.582C472.854 172.591 470.342 173.951 467.594 174.472C464.847 174.992 462.004 174.645 459.467 173.481C456.93 172.317 454.828 170.394 453.457 167.985C451.739 164.963 451.295 161.422 450.786 157.992C450.276 154.563 449.614 151.015 447.562 148.204C445.51 145.393 441.67 143.557 438.411 144.837L435.673 139.593Z" fill="#2F2E41"/>
<path d="M224.051 149.405C218.117 149.404 212.427 147.074 208.232 142.928C204.036 138.782 201.679 133.159 201.679 127.295C201.679 123.296 201.682 120.239 201.688 119.804C201.876 106.106 205.367 92.6508 211.87 80.5532C201.186 95.0083 195.31 112.388 195.058 130.287C195.052 130.722 195.049 133.779 195.049 137.778C195.05 143.642 197.407 149.265 201.602 153.411C205.797 157.557 211.488 159.887 217.421 159.888C222.296 159.886 227.038 158.311 230.926 155.403C234.813 152.496 237.634 148.413 238.96 143.776C234.863 147.407 229.553 149.411 224.051 149.405Z" fill="#3F3D56"/>
<path d="M284.253 91.1409C291.112 91.4646 297.79 93.4287 303.712 96.8644C309.634 100.3 314.623 105.105 318.252 110.866C321.881 116.627 324.041 123.173 324.547 129.941C325.052 136.709 323.888 143.497 321.154 149.722C325.108 145.132 328.015 139.754 329.675 133.953C331.336 128.153 331.711 122.067 330.776 116.11C329.841 110.153 327.617 104.465 324.255 99.435C320.894 94.4046 316.475 90.1496 311.299 86.96C306.123 83.7705 300.311 81.7213 294.261 80.9524C288.211 80.1834 282.064 80.7128 276.24 82.5042C270.416 84.2957 265.051 87.3071 260.511 91.3334C255.971 95.3596 252.363 100.306 249.933 105.835C254.133 100.952 259.412 97.0879 265.362 94.5403C271.313 91.9926 277.776 90.8296 284.253 91.1409Z" fill="#3F3D56"/>
<path d="M291.136 286.991C285.083 286.993 279.273 284.643 274.958 280.448C270.643 276.253 268.169 270.551 268.071 264.57C267.79 247.236 267.645 225.88 267.645 223.44C267.641 217.502 268.506 211.595 270.213 205.902L270.205 205.9C271.213 203.042 272.43 200.261 273.847 197.579C269.497 203.308 266.035 209.645 263.575 216.383L263.583 216.385C261.876 222.078 261.011 227.985 261.015 233.922C261.015 236.363 261.161 257.719 261.441 275.053C261.539 281.033 264.013 286.736 268.328 290.931C272.643 295.125 278.453 297.476 284.506 297.474C289.497 297.473 294.353 295.873 298.345 292.915C302.338 289.956 305.252 285.797 306.651 281.063C302.41 284.885 296.875 286.999 291.136 286.991Z" fill="#3F3D56"/>
<path d="M83.8937 381.695L92.0211 381.694L95.8883 350.712L83.8917 350.713L83.8937 381.695Z" fill="#FFB8B8"/>
<path d="M107.697 389.152L82.1521 389.153L82.1516 379.4L97.8269 379.399C100.445 379.399 102.955 380.426 104.806 382.255C106.657 384.085 107.697 386.565 107.697 389.152L107.697 389.152Z" fill="#2F2E41"/>
<path d="M54.7228 381.695L62.8502 381.694L66.7173 350.712L54.7208 350.713L54.7228 381.695Z" fill="#FFB8B8"/>
<path d="M78.526 389.152L52.9811 389.153L52.9806 379.4L68.656 379.399C71.2735 379.399 73.784 380.426 75.635 382.255C77.486 384.085 78.5259 386.565 78.526 389.152L78.526 389.152Z" fill="#2F2E41"/>
<path d="M61.8254 372.166L53.8863 371.753C53.4769 371.732 53.0758 371.631 52.7064 371.455C52.3369 371.28 52.0064 371.033 51.7339 370.731C51.4614 370.428 51.2525 370.075 51.1191 369.692C50.9857 369.309 50.9306 368.903 50.9569 368.499L60.4459 264.676L104.143 276.329L108.353 275.194L95.1878 367.105C95.0756 367.796 94.7282 368.429 94.2028 368.899C93.6775 369.369 93.0057 369.648 92.2984 369.689L83.7401 370.083C83.3122 370.107 82.884 370.042 82.4825 369.894C82.0811 369.745 81.7152 369.516 81.4079 369.221C81.1007 368.926 80.8587 368.571 80.6974 368.178C80.5361 367.786 80.4588 367.365 80.4706 366.941L82.0213 311.778C82.0286 311.523 81.9389 311.274 81.77 311.081C81.601 310.889 81.3651 310.765 81.1086 310.735C80.8521 310.706 80.5937 310.772 80.3843 310.922C80.1749 311.071 80.0297 311.292 79.9773 311.542L65.0225 369.73C64.8814 370.42 64.5023 371.041 63.9499 371.486C63.3975 371.931 62.706 372.173 61.9933 372.171C61.9377 372.171 61.8817 372.169 61.8254 372.166Z" fill="#2F2E41"/>
<path d="M85.3529 179.727C94.346 179.727 101.636 172.523 101.636 163.635C101.636 154.748 94.346 147.544 85.3529 147.544C76.3599 147.544 69.0695 154.748 69.0695 163.635C69.0695 172.523 76.3599 179.727 85.3529 179.727Z" fill="#FFB8B8"/>
<path d="M58.2422 210.912L60.0326 249.088L60.6799 262.976C60.7057 263.581 60.9134 264.164 61.2765 264.652C61.6395 265.139 62.1415 265.508 62.7181 265.712L104.708 280.744C105.048 280.868 105.407 280.931 105.769 280.928C106.182 280.93 106.592 280.849 106.974 280.691C107.355 280.533 107.7 280.301 107.989 280.008C108.278 279.715 108.504 279.368 108.653 278.987C108.803 278.606 108.874 278.199 108.861 277.791L107.139 209.15C107.026 203.518 104.928 198.102 101.208 193.835C97.4869 189.568 92.3763 186.718 86.7569 185.775C86.3507 185.714 85.9375 185.653 85.5243 185.598C82.0398 185.171 78.5028 185.503 75.1622 186.572C71.8216 187.64 68.7586 189.419 66.1886 191.784C63.5274 194.203 61.4363 197.17 60.0632 200.475C58.6901 203.78 58.0685 207.343 58.2422 210.912L58.2422 210.912Z" fill="#CCCCCC"/>
<path d="M124.767 273.126C123.774 272.822 122.867 272.292 122.117 271.579C121.368 270.867 120.798 269.991 120.452 269.022C120.106 268.053 119.995 267.017 120.126 265.998C120.257 264.978 120.627 264.003 121.208 263.15L106.968 244.439L119.256 243.687L130.894 261.571C132.14 262.523 133.007 263.878 133.343 265.399C133.679 266.919 133.463 268.508 132.732 269.887C132.001 271.265 130.802 272.346 129.345 272.938C127.889 273.53 126.268 273.597 124.767 273.126H124.767Z" fill="#FFB8B8"/>
<path d="M114.755 259.764C114.378 259.613 114.035 259.389 113.746 259.106C113.457 258.822 113.227 258.485 113.071 258.114L91.6178 207.604C91.1969 206.615 90.9773 205.554 90.9716 204.481C90.9659 203.408 91.1741 202.344 91.5845 201.351C91.9948 200.358 92.5993 199.454 93.3632 198.692C94.1271 197.93 95.0355 197.324 96.0366 196.908C97.0376 196.493 98.1116 196.277 99.1973 196.272C100.283 196.267 101.359 196.474 102.364 196.88C103.368 197.286 104.282 197.884 105.053 198.64C105.824 199.396 106.437 200.294 106.856 201.283L128.309 251.794C128.626 252.543 128.629 253.386 128.318 254.137C128.008 254.889 127.408 255.488 126.651 255.803L117.127 259.753C116.752 259.91 116.349 259.991 115.942 259.993C115.535 259.995 115.132 259.917 114.755 259.764L114.755 259.764Z" fill="#CCCCCC"/>
<path d="M80.1177 257.982L100.723 218.994C101.12 218.244 101.802 217.681 102.619 217.427C103.436 217.174 104.322 217.251 105.082 217.642L134.989 233.078C135.748 233.471 136.318 234.145 136.575 234.952C136.831 235.76 136.753 236.635 136.357 237.386L115.753 276.374C115.355 277.124 114.673 277.688 113.856 277.941C113.039 278.194 112.153 278.117 111.394 277.726L81.4857 262.29C80.727 261.898 80.1568 261.224 79.9004 260.416C79.6439 259.608 79.722 258.733 80.1177 257.982Z" fill="#3F3D56"/>
<path d="M93.936 240.17C93.5697 239.208 92.981 238.344 92.2169 237.647C91.4527 236.95 90.5343 236.439 89.5349 236.155C88.5355 235.871 87.4828 235.822 86.4608 236.012C85.4388 236.202 84.4758 236.625 83.6486 237.247L63.9062 224.305L63.8727 236.471L82.6255 246.896C83.6607 248.069 85.0807 248.845 86.6365 249.086C88.1923 249.328 89.7845 249.02 91.1339 248.218C92.4832 247.415 93.5036 246.169 94.016 244.697C94.5284 243.226 94.5001 241.623 93.936 240.17Z" fill="#FFB8B8"/>
<path d="M68.975 242.906L52.8402 230.275C51.0948 229.696 49.5176 228.707 48.2441 227.393C46.9706 226.079 46.0389 224.479 45.5288 222.73C45.0187 220.982 44.9456 219.137 45.3156 217.355C45.6857 215.573 46.488 213.906 47.6535 212.497L62.3034 193.523C63.3214 192.294 64.7532 191.468 66.3369 191.196C67.9207 190.924 69.5506 191.224 70.9288 192.042C72.307 192.859 73.3414 194.14 73.8428 195.649C74.3443 197.158 74.2794 198.796 73.6599 200.261L62.0686 218.999L79.1031 226.984C79.4992 227.17 79.8509 227.436 80.1351 227.766C80.4192 228.096 80.6292 228.482 80.7513 228.898C80.8734 229.314 80.9047 229.751 80.8432 230.18C80.7817 230.609 80.6288 231.02 80.3946 231.386L73.5184 242.141C73.286 242.504 72.979 242.814 72.6173 243.052C72.2556 243.291 71.8474 243.451 71.419 243.524C71.402 243.527 71.3848 243.529 71.3677 243.532C70.9467 243.595 70.5172 243.571 70.1056 243.464C69.6941 243.356 69.3093 243.166 68.975 242.906Z" fill="#CCCCCC"/>
<path d="M73.0488 174.411C72.9789 174.209 72.9568 173.994 72.984 173.782C73.0112 173.57 73.0872 173.367 73.206 173.189C73.3248 173.011 73.4833 172.862 73.6694 172.753C73.8554 172.645 74.0641 172.58 74.2795 172.564C74.7205 172.588 75.1521 172.699 75.5482 172.892C75.9443 173.086 76.2967 173.356 76.5841 173.687C77.1734 174.359 77.8594 174.941 78.6202 175.415C79.4079 175.808 80.4762 175.752 80.9253 175.004C81.3469 174.301 81.058 173.36 80.8027 172.544C80.1531 170.468 79.7897 168.315 79.7221 166.143C79.6486 163.719 79.9947 161.189 81.3529 159.298C83.1057 156.858 86.2399 155.931 89.2061 155.998C92.1723 156.066 95.0903 156.97 98.0284 157.542C99.0427 157.74 100.235 157.841 100.913 157.064C101.635 156.238 101.37 154.901 101.063 153.786C100.267 150.892 99.4221 147.899 97.5723 145.562C95.5721 143.133 92.7149 141.543 89.5762 141.113C86.5629 140.744 83.504 141.087 80.651 142.114C76.0028 143.562 71.9127 146.378 68.9277 150.185C65.8506 154.234 64.521 159.322 65.2295 164.337C65.9217 168.705 68.2638 172.651 71.7836 175.38L73.0488 174.411Z" fill="#2F2E41"/>
<path d="M279.284 381.823C274.952 379.958 271.117 377.124 268.083 373.544C265.049 369.964 262.899 365.736 261.801 361.194C260.704 356.652 260.69 351.92 261.76 347.372C262.83 342.823 264.955 338.583 267.967 334.985C264.474 337.505 261.564 340.73 259.429 344.447C257.294 348.163 255.984 352.286 255.585 356.542C255.185 360.797 255.706 365.088 257.113 369.129C258.52 373.17 260.781 376.869 263.745 379.981C266.71 383.092 270.31 385.546 274.307 387.177C278.303 388.809 282.606 389.582 286.928 389.445C291.25 389.307 295.494 388.263 299.376 386.382C303.259 384.5 306.693 381.824 309.449 378.53C305.15 381.635 300.103 383.573 294.811 384.151C289.518 384.728 284.165 383.926 279.284 381.823Z" fill="#3F3D56"/>
</g>
<defs>
<clipPath id="clip0">
<rect width="560" height="390" fill="white"/>
</clipPath>
</defs>
</svg>
