<svg width="544" height="400" viewBox="0 0 544 400" fill="none" xmlns="http://www.w3.org/2000/svg">
<g clip-path="url(#clip0)">
<path d="M474.906 347.994C470.486 348.384 466.04 348.323 461.632 347.813C413.173 342.32 347.185 343.882 293.392 378.05C218.999 425.295 102.409 384.849 50.9796 362.845C11.6836 346.039 -8.71674 304.876 3.53689 266.238C3.7094 265.692 3.88672 265.147 4.07361 264.602C11.7842 241.64 27.0042 223.669 45.8519 214.144C62.2795 205.841 86.2645 188.504 96.9367 155.191C101.345 141.436 107.393 128.496 115.248 117.216C136.281 87.0084 180.311 42.023 256.037 42.3031C269.314 42.369 282.492 44.6556 295.051 49.0727C322.716 58.736 347.702 78.3818 366.756 105.618C378.914 122.989 397.134 139.137 423.218 140.453C459.418 142.291 493.965 159.569 519.881 190.317C520.629 191.201 521.367 192.091 522.105 192.99C568.249 249.343 536.198 342.502 474.906 347.994Z" fill="#536DFE"/>
<g opacity="0.7">
<path opacity="0.7" d="M132.964 342.468C136.617 342.468 139.577 339.432 139.577 335.688C139.577 331.944 136.617 328.909 132.964 328.909C129.312 328.909 126.351 331.944 126.351 335.688C126.351 339.432 129.312 342.468 132.964 342.468Z" fill="url(#paint0_linear)"/>
</g>
<path opacity="0.2" d="M132.964 342.163C136.452 342.163 139.28 339.264 139.28 335.688C139.28 332.112 136.452 329.213 132.964 329.213C129.476 329.213 126.648 332.112 126.648 335.688C126.648 339.264 129.476 342.163 132.964 342.163Z" fill="black"/>
<path d="M97.3342 205.959C98.684 205.959 99.7782 204.837 99.7782 203.454C99.7782 202.07 98.684 200.948 97.3342 200.948C95.9844 200.948 94.8901 202.07 94.8901 203.454C94.8901 204.837 95.9844 205.959 97.3342 205.959Z" fill="white"/>
<path d="M271.77 351.374C273.12 351.374 274.214 350.253 274.214 348.869C274.214 347.485 273.12 346.363 271.77 346.363C270.42 346.363 269.326 347.485 269.326 348.869C269.326 350.253 270.42 351.374 271.77 351.374Z" fill="white"/>
<path d="M168.738 363.042C169.492 363.042 170.104 362.415 170.104 361.642C170.104 360.869 169.492 360.242 168.738 360.242C167.984 360.242 167.372 360.869 167.372 361.642C167.372 362.415 167.984 363.042 168.738 363.042Z" fill="white"/>
<path d="M471.125 295.247C471.879 295.247 472.491 294.62 472.491 293.847C472.491 293.074 471.879 292.447 471.125 292.447C470.371 292.447 469.759 293.074 469.759 293.847C469.759 294.62 470.371 295.247 471.125 295.247Z" fill="white"/>
<path d="M393.012 169.482C393.767 169.482 394.378 168.856 394.378 168.082C394.378 167.309 393.767 166.682 393.012 166.682C392.258 166.682 391.647 167.309 391.647 168.082C391.647 168.856 392.258 169.482 393.012 169.482Z" fill="white"/>
<path d="M503.712 230.891C504.466 230.891 505.078 230.264 505.078 229.491C505.078 228.718 504.466 228.091 503.712 228.091C502.958 228.091 502.346 228.718 502.346 229.491C502.346 230.264 502.958 230.891 503.712 230.891Z" fill="white"/>
<path d="M140.464 123.917C141.814 123.917 142.908 122.796 142.908 121.412C142.908 120.028 141.814 118.906 140.464 118.906C139.114 118.906 138.02 120.028 138.02 121.412C138.02 122.796 139.114 123.917 140.464 123.917Z" fill="white"/>
<path d="M73.2918 290.934H71.1162V288.703H70.2296V290.934H68.054V291.843H70.2296V294.068H71.1162V291.843H73.2918V290.934Z" fill="white"/>
<path d="M127.923 289.951H125.747V287.721H124.861V289.951H122.685V290.86H124.861V293.085H125.747V290.86H127.923V289.951Z" fill="white"/>
<path d="M206.035 335.148H203.86V332.917H202.973V335.148H200.798V336.057H202.973V338.282H203.86V336.057H206.035V335.148Z" fill="white"/>
<path d="M314.833 64.2137H313.841V63.1968H313.438V64.2137H312.446V64.6264H313.438V65.6433H313.841V64.6264H314.833V64.2137Z" fill="white"/>
<path d="M456.202 157.554H455.21V156.537H454.808V157.554H453.816V157.967H454.808V158.984H455.21V157.967H456.202V157.554Z" fill="white"/>
<path d="M372.818 218.472H371.826V217.455H371.424V218.472H370.432V218.884H371.424V219.901H371.826V218.884H372.818V218.472Z" fill="white"/>
<path d="M33.5309 256.791H32.5389V255.774H32.1364V256.791H31.1444V257.203H32.1364V258.22H32.5389V257.203H33.5309V256.791Z" fill="white"/>
<path d="M74.2646 340.306H73.2726V339.289H72.87V340.306H71.8781V340.719H72.87V341.736H73.2726V340.719H74.2646V340.306Z" fill="white"/>
<path d="M202.216 76.4953H201.224V75.4784H200.822V76.4953H199.83V76.908H200.822V77.9249H201.224V76.908H202.216V76.4953Z" fill="white"/>
<path d="M141.835 223.384H140.843V222.367H140.44V223.384H139.448V223.797H140.44V224.814H140.843V223.797H141.835V223.384Z" fill="white"/>
<path d="M154.773 181.135H153.781V180.118H153.379V181.135H152.387V181.548H153.379V182.565H153.781V181.548H154.773V181.135Z" fill="white"/>
<g opacity="0.7">
<path opacity="0.7" d="M358.528 278.632C361.577 278.632 364.048 276.099 364.048 272.973C364.048 269.847 361.577 267.313 358.528 267.313C355.479 267.313 353.007 269.847 353.007 272.973C353.007 276.099 355.479 278.632 358.528 278.632Z" fill="url(#paint1_linear)"/>
</g>
<path opacity="0.2" d="M358.528 278.215C361.352 278.215 363.641 275.868 363.641 272.973C363.641 270.078 361.352 267.731 358.528 267.731C355.704 267.731 353.415 270.078 353.415 272.973C353.415 275.868 355.704 278.215 358.528 278.215Z" fill="black"/>
<path opacity="0.2" d="M372.296 315.733C375.453 315.733 378.013 313.109 378.013 309.872C378.013 306.635 375.453 304.011 372.296 304.011C369.138 304.011 366.579 306.635 366.579 309.872C366.579 313.109 369.138 315.733 372.296 315.733Z" fill="black"/>
<g opacity="0.7">
<path opacity="0.7" d="M321.062 150.835C321.102 138.523 318.224 126.384 312.676 115.464C310.045 110.335 307.644 107.152 305.795 105.192C305.088 104.426 304.165 103.908 303.156 103.708C302.147 103.509 301.102 103.64 300.169 104.081C299.422 104.353 298.748 104.798 298.199 105.383C295.702 108.036 293.445 111.544 291.49 115.272C285.657 126.453 282.631 138.947 282.687 151.626V159.231H277.928V70.7979C277.928 52.2673 273.883 33.9872 265.947 17.7754C262.19 10.0919 258.759 5.31682 256.128 2.38395C255.49 1.63756 254.703 1.03953 253.821 0.629821C252.938 0.220116 251.981 0.00817871 251.013 0.00817871C250.044 0.00817871 249.087 0.220116 248.205 0.629821C247.322 1.03953 246.536 1.63756 245.897 2.38395C242.332 6.35831 239.111 11.6149 236.313 17.2006C227.979 33.7661 223.747 52.5719 223.747 71.6429V159.197H219.636V151.223C219.688 138.552 216.663 126.067 210.832 114.894C208.863 111.165 206.606 107.658 204.123 105.005C203.402 104.22 202.455 103.692 201.42 103.5C200.385 103.307 199.317 103.459 198.373 103.934L198.545 104.027C197.943 104.302 197.399 104.692 196.94 105.177C195.095 107.142 192.694 110.32 190.063 115.449C184.515 126.37 181.637 138.508 181.677 150.821V282.972H196.36L194.74 293.833V326.321H206.75V293.833L205.144 282.967H219.617V162.606H223.728V282.446H235.455L233.773 293.833V326.321H245.782V293.833L244.1 282.431H259.914L258.222 293.833V326.321H270.232V293.833L268.55 282.431H277.914V162.621H282.672V283.163H286.53V282.981H299.287L297.686 293.833V326.321H309.695V293.833L308.09 282.967H321.062V150.835Z" fill="url(#paint2_linear)"/>
</g>
<path d="M209.131 287.515H197.759L199.791 273.361H207.099L209.131 287.515Z" fill="#535461"/>
<g opacity="0.1">
<path opacity="0.1" d="M199.226 278.981H207.665L207.099 275.026H199.791L199.226 278.981Z" fill="black"/>
</g>
<path d="M306.58 287.515H295.213L297.24 273.361H304.553L306.58 287.515Z" fill="#535461"/>
<g opacity="0.1">
<path opacity="0.1" d="M296.675 278.981H305.119L304.553 275.026H297.24L296.675 278.981Z" fill="black"/>
</g>
<path d="M246.079 287.515H234.712L236.739 273.361H244.052L246.079 287.515Z" fill="#535461"/>
<g opacity="0.1">
<path opacity="0.1" d="M236.174 278.981H244.617L244.052 275.026H236.739L236.174 278.981Z" fill="black"/>
</g>
<path d="M269.225 287.515H257.858L259.885 273.361H267.193L269.225 287.515Z" fill="#535461"/>
<g opacity="0.1">
<path opacity="0.1" d="M259.32 278.981H267.764L267.193 275.026H259.885L259.32 278.981Z" fill="black"/>
</g>
<path d="M290.34 156.395H209.131V159.726H290.34V156.395Z" fill="#535461"/>
<path d="M302.89 103.79C302.461 103.304 301.938 102.916 301.353 102.65C300.769 102.384 300.137 102.247 299.498 102.247C298.858 102.247 298.226 102.384 297.642 102.65C297.057 102.916 296.534 103.304 296.105 103.79C293.742 106.374 291.605 109.788 289.741 113.419C284.211 124.344 281.351 136.482 281.407 148.79V276.933H317.348V148.25C317.393 136.282 314.672 124.474 309.408 113.792C306.911 108.801 304.64 105.677 302.89 103.79Z" fill="#E0E0E0"/>
<path d="M199.825 103.79C200.254 103.304 200.777 102.916 201.362 102.65C201.946 102.384 202.578 102.247 203.218 102.247C203.857 102.247 204.489 102.384 205.073 102.65C205.658 102.916 206.181 103.304 206.61 103.79C208.978 106.374 211.11 109.788 212.979 113.419C218.507 124.345 221.366 136.482 221.313 148.79V276.933H185.372V148.25C185.327 136.282 188.048 124.474 193.312 113.792C195.804 108.801 198.076 105.677 199.825 103.79Z" fill="#E0E0E0"/>
<path d="M185.578 150.981L194.108 151.026V161.804H185.578V150.981Z" fill="#535461"/>
<path d="M212.783 150.981L221.313 151.026V161.804H212.783V150.981Z" fill="#535461"/>
<path d="M281.407 150.981L289.932 151.026V161.804H281.407V150.981Z" fill="#535461"/>
<path d="M308.612 150.981L317.138 151.026V161.804H308.612V150.981Z" fill="#535461"/>
<g opacity="0.1">
<path opacity="0.1" d="M212.979 113.252C211.11 109.621 208.978 106.207 206.611 103.623C205.942 102.863 205.049 102.349 204.068 102.16C203.087 101.971 202.073 102.118 201.181 102.577C201.695 102.839 202.159 103.194 202.552 103.623C204.914 106.207 207.051 109.621 208.916 113.252C214.446 124.177 217.305 136.315 217.249 148.623V276.756H221.313V148.628C221.368 136.319 218.508 124.179 212.979 113.252Z" fill="black"/>
</g>
<g opacity="0.1">
<path opacity="0.1" d="M292.99 113.606C294.854 109.975 296.991 106.561 299.354 103.977C299.796 103.487 300.331 103.096 300.926 102.827C300.047 102.433 299.07 102.332 298.133 102.538C297.196 102.745 296.345 103.248 295.702 103.977C293.335 106.561 291.198 109.975 289.333 113.606C283.806 124.532 280.946 136.669 281 148.977V277.129H284.656V148.987C284.599 136.675 287.459 124.534 292.99 113.606Z" fill="black"/>
</g>
<path d="M203.601 319.152H203.29C201.823 319.152 200.416 318.555 199.379 317.492C198.342 316.428 197.759 314.986 197.759 313.483V287.514H209.131V313.483C209.131 314.986 208.549 316.428 207.512 317.492C206.474 318.555 205.068 319.152 203.601 319.152Z" fill="url(#paint3_linear)"/>
<path d="M240.554 319.152H240.237C238.771 319.151 237.366 318.553 236.33 317.49C235.294 316.427 234.712 314.986 234.712 313.483V287.514H246.079V313.483C246.079 314.986 245.497 316.427 244.461 317.49C243.425 318.553 242.019 319.151 240.554 319.152Z" fill="url(#paint4_linear)"/>
<path d="M263.695 319.152H263.374C261.91 319.148 260.507 318.549 259.473 317.486C258.439 316.424 257.858 314.984 257.858 313.483V287.514H269.225V313.483C269.225 314.986 268.643 316.428 267.606 317.492C266.569 318.555 265.162 319.152 263.695 319.152Z" fill="url(#paint5_linear)"/>
<path d="M301.055 319.152H300.753C300.026 319.153 299.306 319.008 298.634 318.723C297.962 318.439 297.351 318.022 296.837 317.495C296.322 316.968 295.914 316.343 295.635 315.655C295.357 314.966 295.213 314.228 295.213 313.483V287.514H306.58V313.483C306.58 314.986 305.998 316.427 304.962 317.49C303.926 318.553 302.521 319.151 301.055 319.152Z" fill="url(#paint6_linear)"/>
<path d="M255.869 3.316C255.276 2.59177 254.535 2.00949 253.698 1.61001C252.861 1.21054 251.95 1.00354 251.027 1.00354C250.104 1.00354 249.192 1.21054 248.356 1.61001C247.519 2.00949 246.778 2.59177 246.184 3.316C242.83 7.18719 239.763 12.3013 237.079 17.7445C229.191 33.8778 225.185 52.1922 225.185 70.7621V276.412H276.462V69.9368C276.462 51.8925 272.628 34.0743 265.133 18.3046C261.611 10.8226 258.366 6.17026 255.869 3.316Z" fill="#EEEEEE"/>
<path d="M258.601 26.16H242.384C239.473 26.16 237.113 28.5795 237.113 31.564V33.3276C237.113 36.3121 239.473 38.7316 242.384 38.7316H258.601C261.512 38.7316 263.872 36.3121 263.872 33.3276V31.564C263.872 28.5795 261.512 26.16 258.601 26.16Z" fill="#535461"/>
<g opacity="0.1">
<path opacity="0.1" d="M276.217 77.7922H225.463V79.8114H276.217V77.7922Z" fill="black"/>
</g>
<path d="M364.705 152.946C363.374 151.155 361.709 149.652 359.807 148.525C357.622 147.233 355.176 146.474 352.659 146.306C350.141 146.138 347.62 146.565 345.29 147.555C342.959 148.546 340.882 150.072 339.219 152.017C337.556 153.961 336.351 156.272 335.698 158.77C335.045 161.268 334.962 163.886 335.453 166.422C335.945 168.959 336.999 171.346 338.534 173.398C340.069 175.45 342.044 177.113 344.306 178.258C346.568 179.403 349.056 179.999 351.579 180C351.929 180 352.279 180 352.619 179.961C355.584 179.769 358.443 178.758 360.892 177.034C363.341 175.311 365.289 172.939 366.529 170.172C367.769 167.404 368.255 164.344 367.934 161.316C367.614 158.289 366.5 155.406 364.71 152.976L364.705 152.946Z" fill="url(#paint7_linear)"/>
<path opacity="0.2" d="M367.125 163.106C367.124 167.159 365.618 171.06 362.911 174.015C360.205 176.97 356.503 178.757 352.557 179.013C352.236 179.013 351.905 179.047 351.574 179.047C349.187 179.049 346.832 178.487 344.691 177.406C342.55 176.325 340.68 174.753 339.227 172.812C337.773 170.871 336.775 168.613 336.309 166.214C335.843 163.814 335.922 161.336 336.54 158.973C337.158 156.609 338.298 154.423 339.872 152.584C341.446 150.745 343.412 149.301 345.618 148.366C347.823 147.43 350.209 147.028 352.591 147.189C354.972 147.35 357.286 148.071 359.352 149.296C361.153 150.368 362.727 151.797 363.981 153.501C366.025 156.265 367.129 159.638 367.125 163.106Z" fill="black"/>
<path opacity="0.1" d="M347.745 152.991C346.942 153.345 346.166 153.764 345.426 154.243C344.932 154.52 344.507 154.91 344.185 155.383C344.025 155.621 343.937 155.903 343.932 156.192C343.927 156.481 344.005 156.765 344.156 157.009C344.535 157.54 345.263 157.618 345.905 157.658C346.58 157.746 347.265 157.675 347.908 157.451C348.343 157.231 348.738 156.937 349.078 156.582L350.415 155.339C350.894 154.906 351.373 154.312 351.186 153.703C351.076 153.485 350.914 153.299 350.716 153.162C350.517 153.025 350.289 152.941 350.05 152.917C348.898 152.687 347.703 152.902 346.696 153.521" fill="black"/>
<g opacity="0.1">
<path opacity="0.1" d="M342.162 170.239C342.615 170.239 342.982 169.863 342.982 169.399C342.982 168.935 342.615 168.559 342.162 168.559C341.71 168.559 341.343 168.935 341.343 169.399C341.343 169.863 341.71 170.239 342.162 170.239Z" fill="black"/>
</g>
<g opacity="0.1">
<path opacity="0.1" d="M358.801 167.159C360.458 167.159 361.801 165.782 361.801 164.083C361.801 162.385 360.458 161.008 358.801 161.008C357.144 161.008 355.801 162.385 355.801 164.083C355.801 165.782 357.144 167.159 358.801 167.159Z" fill="black"/>
</g>
<g opacity="0.1">
<path opacity="0.1" d="M364.01 153.502C364.001 154.306 363.767 155.09 363.336 155.762C362.905 156.433 362.294 156.964 361.577 157.29C360.86 157.616 360.067 157.724 359.292 157.601C358.517 157.478 357.792 157.129 357.205 156.596C356.618 156.063 356.192 155.368 355.979 154.595C355.766 153.821 355.774 153 356.003 152.231C356.232 151.462 356.671 150.777 357.269 150.256C357.867 149.736 358.599 149.403 359.376 149.296C361.179 150.367 362.754 151.797 364.01 153.502Z" fill="black"/>
</g>
<g opacity="0.1">
<path opacity="0.1" d="M364.288 172.283C362.95 174.235 361.201 175.853 359.171 177.018C357.14 178.183 354.879 178.865 352.557 179.013C352.557 178.792 352.528 178.571 352.528 178.345C352.529 176.946 352.909 175.575 353.626 174.384C354.343 173.194 355.368 172.23 356.587 171.602C357.806 170.973 359.172 170.704 360.532 170.824C361.891 170.945 363.192 171.45 364.288 172.283Z" fill="black"/>
</g>
<path d="M152.277 243.954C151.349 242.696 150.186 241.641 148.855 240.849C147.328 239.931 145.615 239.386 143.849 239.258C142.083 239.129 140.312 239.42 138.673 240.109C137.035 240.797 135.574 241.864 134.404 243.226C133.234 244.588 132.386 246.209 131.927 247.961C131.468 249.714 131.41 251.552 131.757 253.332C132.105 255.112 132.848 256.785 133.93 258.222C135.012 259.659 136.402 260.82 137.994 261.616C139.585 262.411 141.334 262.82 143.104 262.809C143.349 262.809 143.584 262.809 143.833 262.784C145.898 262.642 147.887 261.931 149.59 260.726C151.294 259.522 152.649 257.868 153.512 255.94C154.376 254.012 154.716 251.881 154.497 249.772C154.278 247.662 153.507 245.652 152.267 243.954H152.277Z" fill="url(#paint8_linear)"/>
<path opacity="0.2" d="M153.963 251.043C153.963 253.87 152.912 256.592 151.024 258.653C149.135 260.715 146.552 261.962 143.799 262.14C143.574 262.14 143.32 262.14 143.114 262.14C141.45 262.14 139.808 261.747 138.316 260.993C136.824 260.238 135.521 259.141 134.508 257.788C133.496 256.434 132.8 254.86 132.475 253.187C132.151 251.514 132.206 249.787 132.637 248.14C133.067 246.492 133.862 244.968 134.959 243.685C136.056 242.403 137.426 241.396 138.963 240.743C140.5 240.09 142.163 239.808 143.824 239.919C145.484 240.031 147.097 240.532 148.539 241.384C149.797 242.135 150.896 243.137 151.769 244.332C153.197 246.262 153.968 248.62 153.963 251.043Z" fill="black"/>
<path opacity="0.1" d="M140.44 243.988C139.88 244.233 139.339 244.523 138.825 244.858C138.482 245.054 138.186 245.326 137.958 245.653C137.851 245.823 137.794 246.02 137.794 246.221C137.794 246.422 137.851 246.619 137.958 246.788C138.117 246.949 138.308 247.073 138.518 247.151C138.728 247.229 138.952 247.259 139.175 247.24C139.646 247.303 140.124 247.254 140.574 247.098C140.879 246.944 141.156 246.738 141.394 246.489L142.323 245.624C142.649 245.319 143.004 244.907 142.86 244.484C142.787 244.33 142.675 244.197 142.536 244.101C142.397 244.004 142.236 243.947 142.069 243.934C141.267 243.773 140.435 243.924 139.735 244.357" fill="black"/>
<g opacity="0.1">
<path opacity="0.1" d="M136.544 256.014C136.859 256.014 137.114 255.753 137.114 255.43C137.114 255.107 136.859 254.845 136.544 254.845C136.229 254.845 135.974 255.107 135.974 255.43C135.974 255.753 136.229 256.014 136.544 256.014Z" fill="black"/>
</g>
<g opacity="0.1">
<path opacity="0.1" d="M148.155 253.872C149.312 253.872 150.25 252.911 150.25 251.726C150.25 250.54 149.312 249.579 148.155 249.579C146.999 249.579 146.061 250.54 146.061 251.726C146.061 252.911 146.999 253.872 148.155 253.872Z" fill="black"/>
</g>
<g opacity="0.1">
<path opacity="0.1" d="M151.773 244.342C151.769 244.908 151.606 245.461 151.303 245.935C151 246.408 150.571 246.782 150.066 247.012C149.561 247.242 149.002 247.318 148.457 247.231C147.911 247.144 147.401 246.898 146.988 246.522C146.575 246.145 146.277 245.655 146.128 245.11C145.98 244.564 145.988 243.987 146.152 243.446C146.315 242.905 146.628 242.424 147.051 242.06C147.474 241.696 147.991 241.465 148.539 241.394C149.799 242.144 150.899 243.147 151.773 244.342Z" fill="black"/>
</g>
<g opacity="0.1">
<path opacity="0.1" d="M151.984 257.444C151.051 258.806 149.831 259.935 148.414 260.748C146.997 261.561 145.42 262.037 143.799 262.14C143.799 261.988 143.799 261.831 143.799 261.649C143.8 260.673 144.065 259.716 144.565 258.886C145.065 258.055 145.78 257.383 146.631 256.945C147.482 256.506 148.434 256.318 149.383 256.402C150.331 256.486 151.239 256.838 152.004 257.419L151.984 257.444Z" fill="black"/>
</g>
<path d="M457.606 211.279C458.093 211.279 458.488 210.875 458.488 210.375C458.488 209.876 458.093 209.472 457.606 209.472C457.119 209.472 456.725 209.876 456.725 210.375C456.725 210.875 457.119 211.279 457.606 211.279Z" fill="white"/>
</g>
<defs>
<linearGradient id="paint0_linear" x1="132.964" y1="342.468" x2="132.964" y2="328.914" gradientUnits="userSpaceOnUse">
<stop stop-color="#808080" stop-opacity="0.25"/>
<stop offset="0.54" stop-color="#808080" stop-opacity="0.12"/>
<stop offset="1" stop-color="#808080" stop-opacity="0.1"/>
</linearGradient>
<linearGradient id="paint1_linear" x1="8613.46" y1="6686.89" x2="8613.46" y2="6426.22" gradientUnits="userSpaceOnUse">
<stop stop-color="#808080" stop-opacity="0.25"/>
<stop offset="0.54" stop-color="#808080" stop-opacity="0.12"/>
<stop offset="1" stop-color="#808080" stop-opacity="0.1"/>
</linearGradient>
<linearGradient id="paint2_linear" x1="77810.2" y1="230755" x2="77810.2" y2="13995.6" gradientUnits="userSpaceOnUse">
<stop stop-color="#808080" stop-opacity="0.25"/>
<stop offset="0.54" stop-color="#808080" stop-opacity="0.12"/>
<stop offset="1" stop-color="#808080" stop-opacity="0.1"/>
</linearGradient>
<linearGradient id="paint3_linear" x1="203.448" y1="287.514" x2="203.448" y2="319.152" gradientUnits="userSpaceOnUse">
<stop stop-color="#E0E0E0"/>
<stop offset="0.31" stop-color="#FCCC63"/>
<stop offset="0.77" stop-color="#F55F44"/>
</linearGradient>
<linearGradient id="paint4_linear" x1="6305.28" y1="20160.4" x2="6305.28" y2="22197.8" gradientUnits="userSpaceOnUse">
<stop stop-color="#E0E0E0"/>
<stop offset="0.31" stop-color="#FCCC63"/>
<stop offset="0.77" stop-color="#F55F44"/>
</linearGradient>
<linearGradient id="paint5_linear" x1="6877.5" y1="20160.4" x2="6877.5" y2="22197.8" gradientUnits="userSpaceOnUse">
<stop stop-color="#E0E0E0"/>
<stop offset="0.31" stop-color="#FCCC63"/>
<stop offset="0.77" stop-color="#F55F44"/>
</linearGradient>
<linearGradient id="paint6_linear" x1="7800.89" y1="20160.4" x2="7800.89" y2="22197.8" gradientUnits="userSpaceOnUse">
<stop stop-color="#E0E0E0"/>
<stop offset="0.31" stop-color="#FCCC63"/>
<stop offset="0.77" stop-color="#F55F44"/>
</linearGradient>
<linearGradient id="paint7_linear" x1="25532.4" y1="13949.8" x2="25532.4" y2="11633.9" gradientUnits="userSpaceOnUse">
<stop stop-color="#808080" stop-opacity="0.25"/>
<stop offset="0.54" stop-color="#808080" stop-opacity="0.12"/>
<stop offset="1" stop-color="#808080" stop-opacity="0.1"/>
</linearGradient>
<linearGradient id="paint8_linear" x1="7754.89" y1="13865.4" x2="7754.89" y2="12735.7" gradientUnits="userSpaceOnUse">
<stop stop-color="#808080" stop-opacity="0.25"/>
<stop offset="0.54" stop-color="#808080" stop-opacity="0.12"/>
<stop offset="1" stop-color="#808080" stop-opacity="0.1"/>
</linearGradient>
<clipPath id="clip0">
<rect width="544" height="400" fill="white"/>
</clipPath>
</defs>
</svg>
